{
	"asset":{
		"generator":"Khronos glTF Blender I/O v4.2.57",
		"version":"2.0"
	},
	"scene":0,
	"scenes":[
		{
			"name":"Scene",
			"nodes":[
				0,
				1,
				2
			]
		}
	],
	"nodes":[
		{
			"mesh":0,
			"name":"Bee_Eye_0",
			"rotation":[
				-0.70710688829422,
				0,
				0,
				0.7071066498756409
			]
		},
		{
			"mesh":1,
			"name":"Bee_Material #25_0",
			"rotation":[
				-0.70710688829422,
				0,
				0,
				0.7071066498756409
			]
		},
		{
			"mesh":2,
			"name":"Bee_Wing_0",
			"rotation":[
				-0.70710688829422,
				0,
				0,
				0.7071066498756409
			]
		}
	],
	"materials":[
		{
			"doubleSided":true,
			"name":"material",
			"pbrMetallicRoughness":{
				"baseColorTexture":{
					"index":0
				},
				"metallicFactor":0,
				"roughnessFactor":0.29096800088882446
			}
		},
		{
			"doubleSided":true,
			"name":"Material_25",
			"pbrMetallicRoughness":{
				"baseColorTexture":{
					"index":1
				},
				"metallicFactor":0.13586127758026123,
				"roughnessFactor":0.5592606663703918
			}
		},
		{
			"alphaMode":"BLEND",
			"doubleSided":true,
			"name":"Wing",
			"pbrMetallicRoughness":{
				"baseColorFactor":[
					1,
					1,
					1,
					0.5322027206420898
				],
				"baseColorTexture":{
					"index":2
				},
				"metallicFactor":0,
				"roughnessFactor":0.49828505516052246
			}
		}
	],
	"meshes":[
		{
			"name":"Bee_Eye_0",
			"primitives":[
				{
					"attributes":{
						"POSITION":0,
						"NORMAL":1,
						"TEXCOORD_0":2
					},
					"indices":3,
					"material":0
				}
			]
		},
		{
			"name":"Bee_Material #25_0",
			"primitives":[
				{
					"attributes":{
						"POSITION":4,
						"NORMAL":5,
						"TEXCOORD_0":6
					},
					"indices":7,
					"material":1
				}
			]
		},
		{
			"name":"Bee_Wing_0",
			"primitives":[
				{
					"attributes":{
						"POSITION":8,
						"NORMAL":9,
						"TEXCOORD_0":10
					},
					"indices":11,
					"material":2
				}
			]
		}
	],
	"textures":[
		{
			"sampler":0,
			"source":0
		},
		{
			"sampler":0,
			"source":0
		},
		{
			"sampler":0,
			"source":1
		}
	],
	"images":[
		{
			"mimeType":"image/jpeg",
			"name":"Material_25_baseColor",
			"uri":"textures/Material_25_baseColor.jpg"
		},
		{
			"mimeType":"image/jpeg",
			"name":"Material_25_baseColor",
			"uri":"textures/Material_25_baseColor.jpg"
		}
	],
	"accessors":[
		{
			"bufferView":0,
			"componentType":5126,
			"count":2308,
			"max":[
				16.128097534179688,
				-4.809299468994141,
				64.17089080810547
			],
			"min":[
				-16.127700805664062,
				-22.436697006225586,
				46.28165054321289
			],
			"type":"VEC3"
		},
		{
			"bufferView":1,
			"componentType":5126,
			"count":2308,
			"type":"VEC3"
		},
		{
			"bufferView":2,
			"componentType":5126,
			"count":2308,
			"type":"VEC2"
		},
		{
			"bufferView":3,
			"componentType":5123,
			"count":13248,
			"type":"SCALAR"
		},
		{
			"bufferView":4,
			"componentType":5126,
			"count":10976,
			"max":[
				35.809566497802734,
				28.94828224182129,
				74.96156311035156
			],
			"min":[
				-35.80970001220703,
				-24.888675689697266,
				-0.08563749492168427
			],
			"type":"VEC3"
		},
		{
			"bufferView":5,
			"componentType":5126,
			"count":10976,
			"type":"VEC3"
		},
		{
			"bufferView":6,
			"componentType":5126,
			"count":10976,
			"type":"VEC2"
		},
		{
			"bufferView":7,
			"componentType":5123,
			"count":57936,
			"type":"SCALAR"
		},
		{
			"bufferView":8,
			"componentType":5126,
			"count":284,
			"max":[
				33.02190017700195,
				26.180126190185547,
				50.243499755859375
			],
			"min":[
				-33.02190017700195,
				9.906450271606445,
				23.45505142211914
			],
			"type":"VEC3"
		},
		{
			"bufferView":9,
			"componentType":5126,
			"count":284,
			"type":"VEC3"
		},
		{
			"bufferView":10,
			"componentType":5126,
			"count":284,
			"type":"VEC2"
		},
		{
			"bufferView":11,
			"componentType":5123,
			"count":1200,
			"type":"SCALAR"
		}
	],
	"bufferViews":[
		{
			"buffer":0,
			"byteLength":27696,
			"byteOffset":0,
			"target":34962
		},
		{
			"buffer":0,
			"byteLength":27696,
			"byteOffset":27696,
			"target":34962
		},
		{
			"buffer":0,
			"byteLength":18464,
			"byteOffset":55392,
			"target":34962
		},
		{
			"buffer":0,
			"byteLength":26496,
			"byteOffset":73856,
			"target":34963
		},
		{
			"buffer":0,
			"byteLength":131712,
			"byteOffset":100352,
			"target":34962
		},
		{
			"buffer":0,
			"byteLength":131712,
			"byteOffset":232064,
			"target":34962
		},
		{
			"buffer":0,
			"byteLength":87808,
			"byteOffset":363776,
			"target":34962
		},
		{
			"buffer":0,
			"byteLength":115872,
			"byteOffset":451584,
			"target":34963
		},
		{
			"buffer":0,
			"byteLength":3408,
			"byteOffset":567456,
			"target":34962
		},
		{
			"buffer":0,
			"byteLength":3408,
			"byteOffset":570864,
			"target":34962
		},
		{
			"buffer":0,
			"byteLength":2272,
			"byteOffset":574272,
			"target":34962
		},
		{
			"buffer":0,
			"byteLength":2400,
			"byteOffset":576544,
			"target":34963
		}
	],
	"samplers":[
		{
			"magFilter":9729,
			"minFilter":9987
		}
	],
	"buffers":[
		{
			"byteLength":578944,
			"uri":"bee.bin"
		}
	]
}