<?xml version="1.0" standalone="no"?>
<!DOCTYPE svg PUBLIC "-//W3C//DTD SVG 20010904//EN"
 "http://www.w3.org/TR/2001/REC-SVG-20010904/DTD/svg10.dtd">
<svg version="1.0" xmlns="http://www.w3.org/2000/svg"
 width="400.000000pt" height="400.000000pt" viewBox="0 0 400.000000 400.000000"
 preserveAspectRatio="xMidYMid meet">
<metadata>
Created by potrace 1.14, written by Peter Selinger 2001-2017
</metadata>
<g transform="translate(0.000000,400.000000) scale(0.100000,-0.100000)"
fill="#000000" stroke="none">
<path d="M1306 2654 c3 -76 11 -421 19 -766 l14 -627 36 -50 37 -51 193 0 193
0 102 138 c57 75 106 140 110 145 3 4 57 -58 119 -138 l112 -145 147 -1 c81 0
161 -2 179 -4 27 -3 37 3 72 45 l42 49 24 688 c13 378 26 726 28 772 l4 84
-214 -6 c-118 -3 -217 -8 -220 -11 -3 -3 -21 -227 -39 -498 -18 -271 -34 -510
-36 -531 l-3 -37 -104 135 c-57 74 -107 135 -111 135 -5 0 -55 -59 -112 -132
l-103 -132 -7 59 c-3 33 -19 271 -34 530 -15 259 -28 471 -29 472 -1 2 -97 6
-212 10 l-211 6 4 -139z"/>
<path d="M125 2757 c-2 -6 -6 -373 -8 -815 l-6 -803 372 7 c205 4 379 8 387
10 8 1 58 3 110 3 l95 1 69 82 c38 45 75 93 81 107 9 18 16 167 24 466 6 242
14 490 17 550 l6 110 -81 108 c-56 74 -88 107 -102 107 -27 0 -863 68 -917 75
-29 3 -44 1 -47 -8z m721 -480 c3 -3 2 -171 -2 -374 l-9 -368 -133 -29 c-72
-16 -134 -27 -137 -25 -2 3 -7 203 -11 446 l-7 442 147 -43 c80 -24 149 -46
152 -49z"/>
<path d="M2804 2687 l-58 -54 13 -199 c7 -109 17 -201 21 -204 11 -7 347 -6
354 1 3 3 12 46 19 95 l13 89 29 -1 c17 -1 79 -5 138 -9 l108 -7 -7 -117 c-3
-64 -7 -117 -9 -118 -1 -2 -66 -6 -146 -10 l-144 -8 -10 -139 c-7 -93 -7 -139
0 -141 5 -2 51 -6 100 -10 50 -3 118 -8 153 -12 l62 -6 0 -67 c0 -37 -3 -107
-6 -157 l-7 -90 -125 -7 c-68 -4 -126 -5 -128 -3 -3 2 -10 60 -17 128 l-12
124 -156 3 -157 2 -33 -42 -34 -42 4 -181 c3 -177 4 -181 33 -240 17 -33 36
-63 42 -67 6 -4 218 -7 471 -8 l460 0 32 62 32 63 6 229 6 228 -52 116 -53
116 52 97 52 97 0 222 0 221 -30 43 c-16 24 -37 46 -45 50 -9 3 -219 6 -465 6
l-449 0 -57 -53z"/>
</g>
</svg>
