<svg id="Layer_1" data-name="Layer 1" xmlns="http://www.w3.org/2000/svg" xmlns:xlink="http://www.w3.org/1999/xlink" viewBox="0 0 294.82 114.07"><defs><clipPath id="clippath"><path class="cls-1" d="M0 0h294.82v114.07H0z"/></clipPath><clipPath id="clippath-1"><path class="cls-1" d="M2.87 45.25v40.31H24.8l3.31 1.82 2.87-1.82c5.41-2.65 10-6.38 14.69-8.61 4.86-2.32 8.81-4.93 13.41-6.63l12.75-1 6.96.17 9.87 3.15V45.27c0-23.67-19.22-42.82-42.9-42.82S2.87 21.57 2.87 45.25"/></clipPath><clipPath id="clippath-2"><path class="cls-1" d="M0 0h294.82v114.07H0z"/></clipPath><clipPath id="clippath-3"><path class="cls-1" d="M48.68 55.62c-1.83 1.8-4.16 3.01-6.3 4.27.97 1.92 1.05 4.22 1.2 6.33-.02 2.2-1.52 4.12-.9 6.27.01.05.23.18.31.2 1.27.2 2.63.55 3.79.48l1.66-1.13s.18-.21.11-.25c-.13-.09-.23-.17-.29-.28-.04-.08 0-.25.13-.44.24-.18.51-.33.79-.46 1.25-.38 2.41-1.04 3.69-1.42.12-.21-.04-.54.29-.69 1.83.02 3.21-.44 4.93-.68.09-.01.17-.19 0-.29-3.74-2.23-6.26-5.53-8.23-9.32-.5-.85-.85-1.58-1.18-2.57z"/></clipPath><clipPath id="clippath-4"><path class="cls-1" d="M0 0h294.82v114.07H0z"/></clipPath><clipPath id="clippath-5"><path class="cls-1" d="M30.04 70.84c-1.3 3.64-3.96 6.8-6.42 9.95-.38.74-.62 2.24.05 2.61 1.35.48 3.01.52 3.82 1.95.03.11.22.15.39.03 1.13-.78 4.92-2.91 7.09-4.13 1.38-.66 2.92-1.08 4.04-2.28.05-.05.01-.17-.05-.17-.42 0-.84.06-1.25.12-.93.13-1.84.27-2.65-.34-2.21-1.24-1.33-4.05-2.65-5.81-.65-.68-1.17-1.92-2.31-1.92h-.04z"/></clipPath><clipPath id="clippath-6"><path class="cls-1" d="M0 0h294.82v114.07H0z"/></clipPath><linearGradient id="linear-gradient" x1="-175.39" y1="298.12" x2="-174.39" y2="298.12" gradientTransform="rotate(-90 -19577.415 5110.895) scale(82.97)" gradientUnits="userSpaceOnUse"><stop offset="0" stop-color="#fff"/><stop offset="0" stop-color="#fdfefe"/><stop offset=".12" stop-color="#c3dae9"/><stop offset=".25" stop-color="#8fbbd7"/><stop offset=".37" stop-color="#63a1c7"/><stop offset=".5" stop-color="#3f8bba"/><stop offset=".62" stop-color="#237ab0"/><stop offset=".75" stop-color="#0f6ea9"/><stop offset=".87" stop-color="#0367a5"/><stop offset="1" stop-color="#0065a4"/></linearGradient><linearGradient id="linear-gradient-2" x1="-182.36" y1="304.2" x2="-181.36" y2="304.2" gradientTransform="matrix(0 -18.05 18.05 0 -5442.08 -3219)" gradientUnits="userSpaceOnUse"><stop offset="0" stop-color="#fff"/><stop offset=".13" stop-color="#cfe2ed"/><stop offset=".3" stop-color="#90bcd7"/><stop offset=".48" stop-color="#5d9dc5"/><stop offset=".64" stop-color="#3484b6"/><stop offset=".78" stop-color="#1773ac"/><stop offset=".91" stop-color="#0668a6"/><stop offset="1" stop-color="#0065a4"/></linearGradient><linearGradient id="linear-gradient-3" x1="-183.8" y1="305.41" x2="-182.8" y2="305.41" gradientTransform="rotate(-90 -3749.6 973.86) scale(15.57)" xlink:href="#linear-gradient"/><style>.cls-1,.cls-2{fill:none}.cls-2{stroke-width:.5px;stroke-miterlimit:3.86;stroke:#fff}.cls-7{fill:#0065a4}.cls-8{fill:#fff}</style></defs><g clip-path="url(#clippath)"><path class="cls-8" d="M91.14 114.07V45.96C91.14 20.72 71.01 0 45.76 0S0 20.4 0 45.65v68.42h91.14z"/></g><g clip-path="url(#clippath-1)"><path fill="url(#linear-gradient)" d="M2.87 2.45h85.8v84.93H2.87z"/></g><g clip-path="url(#clippath-2)"><path class="cls-7" d="M47.99 11.33l3.69.99c.64-.43 1.45-.65 2.26-.46 3.7 1.21 7.48 2.15 10.54 4.85l-.1.73c.76.09 2.19.5 2.32 1.04.12.54-.29.93-.46 1.28 2.65 6.92 0 17.81-1.3 20.54.59 3.34 1.08 6.87 4.66 8.53 1.52.5 3.51.58 4.67 1.78 1.4 1.45 4.16 4.62 3.4 8.03-.24 1.05-1.02 1.45-1.02 1.45s-.66.25-1.01-.06c-.86-.7-1.58-1.06-2.47-1.7-.81-.61-1.18-.81-2.42-.48-3.11.47-6.14.62-8.67-1.16.45 1.23.74 2.24 1.46 3.38.89 1.42 1.8 2.46 2.98 3.58 1.68.83 4.74.33 5.26 2.77 3.96-.07 8.21-.34 12.12.35.57.52-.09 1.63.92 1.66l2.68.57c.35.3.84.61 1.2.87v1.82l-8.16 2.09c-6.31.03-.32 18.23-6.53 18.18H61.43c-5.33-.12-11.21.03-16.99-.09l-14.51-.07c-2.87.02-5.5-.08-8.2.07l-.16-.12-18.63-.29V85c2.46.02 8.28-.03 10.74 0-2.46-4.05-1.69-9.76-.48-14.13 1.9-7.13-1.66-15.24 2.63-21.39 3.96-7.08 11.57-9.67 17.8-13.44 1.83-.76 3.67-1.52 5.53-2.27 2.46-2.82 5.47-4.76 8.86-5.62 1.04-.57 2.91-.14 3.13-1.71.12-3.2-3.15-4.79-5.24-6.66-.72-.57-1.4-1.12-1.43-1.99 0-.19.21-.33.36-.4h.69c.26-.92-.93-1.54-.93-2.49-.02-1.02.03-2.11.24-3.08.38-.53.97-.96 1.45-.86l1.7.36z"/><path class="cls-2" d="M47.99 11.33l3.69.99c.64-.43 1.45-.65 2.26-.46 3.7 1.21 7.48 2.15 10.54 4.85l-.1.73c.76.09 2.19.5 2.32 1.04.12.54-.29.93-.46 1.28 2.65 6.92 0 17.81-1.3 20.54.59 3.34 1.08 6.87 4.66 8.53 1.52.5 3.51.58 4.67 1.78 1.4 1.45 4.16 4.62 3.4 8.03-.24 1.05-1.02 1.45-1.02 1.45s-.66.25-1.01-.06c-.86-.7-1.58-1.06-2.47-1.7-.81-.61-1.18-.81-2.42-.48-3.11.47-6.14.62-8.67-1.16.45 1.23.74 2.24 1.46 3.38.89 1.42 1.8 2.46 2.98 3.58 1.68.83 4.74.33 5.26 2.77 3.96-.07 8.21-.34 12.12.35.57.52-.09 1.63.92 1.66l2.68.57c.35.3.84.61 1.2.87v1.82l-8.16 2.09c-6.31.03-.32 18.23-6.53 18.18H61.43c-5.33-.12-11.21.03-16.99-.09l-14.51-.07c-2.87.02-5.5-.08-8.2.07l-.16-.12-18.63-.29V85c2.46.02 8.28-.03 10.74 0-2.46-4.05-1.69-9.76-.48-14.13 1.9-7.13-1.66-15.24 2.63-21.39 3.96-7.08 11.57-9.67 17.8-13.44 1.83-.76 3.67-1.52 5.53-2.27 2.46-2.82 5.47-4.76 8.86-5.62 1.04-.57 2.91-.14 3.13-1.71.12-3.2-3.15-4.79-5.24-6.66-.72-.57-1.4-1.12-1.43-1.99 0-.19.21-.33.36-.4h.69c.26-.92-.93-1.54-.93-2.49-.02-1.02.03-2.11.24-3.08.38-.53.97-.96 1.45-.86l1.7.36z"/><path class="cls-8" d="M51.94 13.74c.71-.85 1.86-.36 2.72-.17 2.96 1 5.69 2 8.28 4.02-.12.05-.37.2-.46.29.96.96 2.77.45 2.95.73.3.45-.47 1.35-.97 1.92-.03.28.13.68.32.82.4.07.38-.59.46-.38 1.81 6.58.13 15.96-3.56 22.85-3.1 5.79-2.81 8.76.54 16.64.69 1.63 2.35 3.32 3.82 4.35 1.49 1.04 3.97.13 4.43 1.92.06.33.06.67.16.84l.81.1c3.91-.28 7.45-.33 11.68.25.07.47-.22.67.08 1.07.83.43 1.96.64 2.81 1 1.23-.07 1.65 1.31 2.69 1.71v39.97H2.78V86.51h12.76c.96-.02.71-.16.15-.88-2.59-3.55-2.32-8.72-1.45-12.83.71-3.35 1.38-7.24 1-10.82-.42-4.86-.09-9.69 3.02-13.38 3.36-4.69 8.21-6.74 12.88-9.23 2.75-1.59 5.49-2.95 8.45-4.01 2.32-2.06 4.85-4.38 7.69-5.36 1.33-.86 3.23-.66 4.44-1.67.51-.51 1.17-1.27.84-2.68-.15-.63-.29-1.77-.84-2.51-1.48-1.97-3.21-2.8-5.1-4.23-.25-.27-.4-.44-.23-.63.17-.17 2.15.25 2.15.25.21-.07.61-.67.23-1-.57-.48-1.62-1.49-2.27-1.92-.39-.22-.63-.8-.46-1.3.85-.14 1.85-.67 2.06-1.55 1.54.26 2.27.94 3.83.96"/><path class="cls-7" d="M55.64 15.06c.05.36-.38.33-.56.5-.39-.19-.83-.54-1.19-.4-.21.21-.62.03-.69.4-.43-.19-.19-.76-.33-1.14.33-.45.92-.12 1.35-.05.47.21.99.33 1.42.69m9.22 3.93c-.19.33-.48.68-.74.92-.49-.21-.64-.83-.64-1.26.5.02 1.11-.12 1.38.33"/><path class="cls-8" d="M67.23 48.81c1.94 1.66 4.74 1.31 6.22 2.62 2.12 1.87 3.33 4.99 3.15 6.58-.07.5-.19.9-.53.61-1-.09-1.76-1.04-2.68-1.68-.58-.39-1.23-.64-2.18-.36-3.17.86-7.82.18-10.18-2.17-.58-2.52-.72-4.19-.06-6.64.71-1.99 2.18-4.53 3.07-6.02.59 2.41.97 5.41 3.17 7.05"/><path d="M67.23 48.81c1.94 1.66 4.74 1.31 6.22 2.62 2.12 1.87 3.33 4.99 3.15 6.58-.07.5-.19.9-.53.61-1-.09-1.76-1.04-2.68-1.68-.58-.39-1.23-.64-2.18-.36-3.17.86-7.82.18-10.18-2.17-.58-2.52-.72-4.19-.06-6.64.71-1.99 2.18-4.53 3.07-6.02.59 2.41.97 5.41 3.17 7.05z" stroke-width=".2" stroke="#0065a4" stroke-miterlimit="3.86" fill="none"/><path class="cls-7" d="M43.39 84.09c-.77-.17-1.38.39-1.73 1.52-.1.31-.13.51-.17.91.58-1.5 1.03-2.04 1.9-2.42m.3 6.96c2.36 0 2.86-.12 3.43-.88-.89.44-1.4.51-3.58.51H39c-2.39 0-2.75-.07-3.4-.68.07.51.36.73 1.04.9.61.14.64.14 2.36.14h4.69zm-.19-3.65v1.58h1.76c1.1 0 1.87-.58 1.87-1.76 0-.96-.7-1.68-1.78-1.68-1.27 0-1.85.84-1.85 1.86m1.92 4.12H35.9c-.63-.04-1.14-.6-1.14-1.29s.51-1.25 1.15-1.25h4.7v-1.48c0-2.36 1.79-4.56 4.7-4.56 2.58 0 4.8 1.88 4.8 4.24 0 2.54-1.99 4.34-4.68 4.34m12.64-.28h4.69c1.72 0 1.75 0 2.36-.15.68-.17.97-.39 1.04-.9-.65.6-1 .68-3.4.68h-4.54c-2.18 0-2.69-.08-3.58-.52.57.76 1.07.87 3.43.87m-4.25-6.76c-.79-.03-1.39.55-1.54 1.72-.04.32-.04.52-.01.92.31-1.57.77-2.11 1.55-2.64m4.21 3.09c0-1.02-.59-1.86-1.86-1.86-1.08 0-1.79.72-1.79 1.68 0 1.18.77 1.76 1.88 1.76h1.77v-1.58zm-1.92 4.12c-2.69 0-4.68-1.8-4.68-4.35 0-2.36 2.22-4.24 4.8-4.24 2.91 0 4.7 2.2 4.7 4.56v1.48h4.56s.09-.01.14-.01c.63 0 1.15.56 1.15 1.25s-.52 1.25-1.15 1.25l-9.52.05zm16.24-1.32l3.79-3c1.39-1.11 1.41-1.13 1.83-1.64.46-.57.57-.93.35-1.39-.19.91-.44 1.2-2.38 2.73l-3.67 2.91c-1.77 1.4-2.21 1.66-3.17 1.88.87.25 1.34.02 3.25-1.5m-3.74-13.04c-.79.06-1.21.78-1.21 1.96 0 .33.02.52.1.91.12-1.6.39-2.25 1.11-2.87m4.63 4.48c-.81.7-1.74 1.2-2.89 1.2-2.06 0-3.8-1.46-3.8-3.32s1.72-3.38 3.82-3.38c1.18 0 2.06.44 2.81 1.1.75.66 7.55 6.94 7.55 6.94l-8.8 7.16c-.74.53-1.08.96-2.03 1.14-.84.16-1.62-.44-2.07-1.11h-.1l9-7.18-2.98-2.96c-.16.14-.34.3-.5.42m-1.67-2.54c-.63-.56-.73-.68-1.2-.68-.7 0-1.24.46-1.24 1.08 0 .58.66 1.14 1.24 1.14.5 0 .75-.16 1.36-.58.12-.1.23-.24.39-.38-.2-.2-.36-.44-.54-.58m11.8-1.57c-.79.07-1.21.79-1.21 1.96 0 .33.02.52.1.92.13-1.6.39-2.26 1.11-2.88m4.88 4.54c.49 0 .89.44.89.97s-.4.97-.89.97c-.05 0-.11 0-.15-.01h-2.06c-2.45 0-4.5-1.54-4.5-3.84s2.05-3.96 4.59-3.96h2.13c.5.01.89.45.89.99s-.4.97-.89.97c-.08 0-.16 0-.24-.04H86.1c-1.46 0-2.35.88-2.35 2.02 0 1.2.93 1.94 2.31 1.94h2.21zM18.42 109.1q.37.52.49.52c.25 0 .35-.29.35-.91l-.02-.94c0-2.68.02-4.41.07-6.1l.12-3.66c.02-1.24.07-4.11.07-4.37.03-3.59.27-4.44 1.5-5.12.47-.23.59-.36.59-.62s-.15-.43-.37-.43c-.1 0-.2 0-.32.04-.54.13-1.01.16-1.58.16-.69 0-1.65-.07-2.09-.16q-1.28-.27-1.43-.27c-.27 0-.45.23-.45.52 0 .33.2.49.62.56.98.2 1.62.62 1.99 1.34.42.81.54 1.86.54 4.86 0 2.22-.08 5.97-.17 7.28-.02.39-.07.52-.22.52s-.42-.26-.82-.91L8.82 88.29c-.62-.95-.79-1.11-1.26-1.11-.12 0-.25 0-.34.03q-1.11.13-1.67.13c-.66 0-1.03-.03-1.65-.16-.12-.04-.27-.04-.35-.04-.25 0-.42.23-.42.53 0 .32.15.49.5.58 1.8.46 2.56 1.82 2.56 4.73l-.07 5.87q-.1 5.74-.22 6.65c-.25 1.47-.59 2.09-1.43 2.52-.44.23-.59.42-.59.68 0 .29.15.46.37.46.15 0 .34-.03.54-.06.64-.1 1.45-.19 1.92-.19.36 0 .76.03 1.15.1q1.36.26 1.75.26c.39 0 .57-.16.57-.45 0-.33-.17-.49-.57-.55-.98-.2-1.48-.49-1.85-1.17-.47-.85-.59-1.93-.59-5.42 0-7.9.05-9.07.32-9.07.08 0 .15.07.32.36l10.59 16.15zm-12.07-5.06c.05.62.07.91.07 1.34 0 1.43-.24 2.05-.96 2.32.5-.53.77-1.73.89-3.66m11.97 3.3c.15.23.2.36.2.49 0 .1-.08.23-.15.23-.1 0-.18-.07-.42-.46l-11.14-17c-.64-1.08-1.08-1.63-1.75-2.19.84.06.89.1 2.66 2.71l10.59 16.22zm-.69-18.67c.79.06 1.21.79 1.21 1.96 0 .33-.02.52-.1.92-.13-1.6-.39-2.25-1.11-2.87m13.82 8.55q0-1.3.05-2.16c.02-.4.02-.62.02-.69 0-.22-.07-.36-.17-.36-.04 0-.09.03-.14.07-.89.65-1.28.8-2.84 1.09-.65.11-.82.25-.82.57 0 .37.12.47.67.54.71.11.92.58.92 1.95v6c0 1.08-.12 1.73-.44 2.28-.36.69-1.01 1.12-1.64 1.12-.72 0-1.49-.61-1.85-1.52-.27-.69-.39-1.52-.39-2.89v-5.78c0-1.33.05-2.24.2-3.03.02-.11.02-.18.02-.25 0-.14-.07-.25-.17-.25-.05 0-.12.03-.2.07-.6.58-1.85 1.05-3.11 1.16-.43.04-.62.22-.62.58s.14.5.57.54c.68.03.9.54.9 2.02v5.96c0 1.55.12 2.49.43 3.32.49 1.34 1.64 2.24 2.87 2.24s2.03-.58 3.04-2.28c.07-.14.12-.18.17-.18.09 0 .17.15.17.36q0 1.88.22 1.88s.1 0 .15-.04c.94-.29 1.51-.36 3.23-.4.43 0 .62-.18.62-.58 0-.36-.14-.51-.46-.51-1.13 0-1.4-.43-1.4-2.28v-8.56zm-1.69 11.05c0 .54-.03.65-.17.65s-.17-.07-.17-.68v-9.79q0-1.7-.33-2.06c.53.33.67.8.67 2.2v9.68zm-6.7-4.23c0 2.96.44 4.04 2.1 5.24-1.78-.54-2.46-1.99-2.46-5.28v-5.96c0-.94-.1-1.37-.53-2.02.62.29.89.83.89 2.02v6zm13.36 1.99c0 1.12-.27 1.99-.72 2.27-.41.26-.46.3-.46.62 0 .25.12.43.29.43.07 0 .19 0 .46-.07.56-.11 1.16-.15 2.03-.15.75 0 1.01.04 2.17.25.12.03.24.03.31.03.24 0 .38-.18.38-.5 0-.39-.12-.5-.77-.62-.54-.1-.99-.57-1.18-1.22-.12-.4-.17-.8-.17-1.7v-5.92c0-.94.08-1.34.36-1.88.41-.73 1.01-1.16 1.69-1.16 1.45 0 2.41 1.73 2.41 4.37v5.13c0 1.45-.17 2.1-.58 2.38-.5.33-.55.4-.55.73 0 .29.09.44.34.44.14 0 .41-.04.67-.11.53-.11.89-.14 1.45-.14s.99.03 1.3.08q1.23.25 1.34.25c.27 0 .39-.14.39-.5s-.12-.47-.7-.61c-.96-.18-1.35-1.01-1.35-2.89v-5.09c0-3.76-1.3-6.18-3.35-6.18-1.13 0-2.21.8-2.96 2.21-.1.18-.17.25-.22.25-.12 0-.19-.22-.19-.65v-1.01q0-1.41-.15-1.41c-.07 0-.14.04-.27.18-.6.58-1.59 1.26-1.93 1.34q-1.64.61-1.64 1.04c0 .33.15.47.48.51.87.14 1.11.65 1.11 2.46v6.86zm.65-1.37c0 2.38-.12 2.89-.87 3.47.43-.9.51-1.41.51-3.61v-4.59c0-2.42-.08-2.78-.68-3.43.51.07.72.36.89 1.05.14.61.14.65.14 2.38v4.73zm6.77 1.84c0 1.01-.24 1.63-.75 1.88.34-.65.41-1.01.41-1.99v-5.35c0-2.74-.51-4.16-1.74-4.73.75.18 1.06.4 1.4.97.41.72.68 2.07.68 3.47v5.75zm12.58-7.55c0-1.66-.2-2.64-.65-3.43-.6-1.05-1.71-1.66-3.01-1.66-2.22 0-4.02 1.77-4.02 3.9 0 .69.19.97.63.97.9 0 1.71-.61 1.71-1.33 0-.07 0-.25-.02-.47v-.32c0-1.09.31-1.59.98-1.59 1.3 0 2.12 1.63 2.12 4.26q0 1.12-.41 1.26c-.36.11-.68.21-.99.32-1.47.51-1.52.55-2.15.91-1.3.79-2.07 2.38-2.07 4.34 0 2.17.82 3.47 2.2 3.47 1.15 0 2.17-.62 3.32-2.02.05-.11.12-.15.15-.15.09 0 .17.15.34.62.31.9.89 1.41 1.54 1.41.97 0 2.27-1.16 2.27-1.95 0-.25-.12-.44-.26-.44-.05 0-.12.04-.27.11-.22.11-.34.15-.51.15-.65 0-.89-.72-.89-2.67v-5.67zm-2.31 6.68c0 1.12-.75 1.95-1.74 1.95-.86 0-1.37-.8-1.37-2.21 0-1.05.29-2.02.85-2.71.51-.65 1.35-1.19 1.88-1.19.31 0 .39.22.39 1.04v3.11zm.29-6.54c0-1.81-.16-2.42-.94-3.79 1.04.69 1.28 1.45 1.28 3.94v6.04c0 1.73.19 2.42.94 3.43-1.03-.4-1.28-1.05-1.28-3.62v-6zm-4 10.01c-.94 0-1.57-1.2-1.57-2.93 0-1.92.58-3.18 1.69-3.72-.82.94-1.25 2.24-1.25 3.83s.43 2.31 1.62 2.78l-.48.04zm-.24-13.73c-.41.61-.62 1.37-.67 2.27-.03.32-.1.51-.24.51-.1 0-.19-.18-.19-.43 0-.95.51-2.03 1.11-2.35m11.56 2.42c-.12-.4-.17-.62-.17-.9 0-.83.33-1.26.99-1.34.31-.04.46-.22.46-.5 0-.33-.17-.51-.41-.51-.07 0-.17 0-.26.03-1.11.15-1.52.18-2.17.18s-1.06-.04-2.03-.18c-.12-.03-.21-.03-.29-.03-.24 0-.38.22-.38.51 0 .18.07.36.19.43.67.33.82.54 1.44 2.46l3.4 11.09c.17.58.31.83.48.83.22 0 .31-.18.75-1.45 1.88-5.53 2.67-8.02 3.3-10.33.53-1.81.68-2.13 1.23-2.64.17-.14.22-.25.22-.47 0-.25-.15-.43-.34-.43-.07 0-.17 0-.29.03-.24.04-.5.04-.79.04-.43 0-.92-.04-1.64-.11h-.29c-.24 0-.41.18-.41.47s.09.4.56.51c.57.18.91.8.91 1.66 0 .94-.38 2.56-1.2 5.05-.65 1.99-.8 2.35-.94 2.35-.12 0-.29-.33-.43-.72l-1.88-6.03zm1.31 10.33c.1.32.11.4.11.51 0 .14-.07.28-.17.28s-.12-.07-.26-.54l-3.35-10.73c-.41-1.12-.58-1.48-.92-2.02.46.11.82.65 1.18 1.62l3.4 10.87zm3.08-12.68c.31 0 .55.47.55 1.05 0 .33-.05.51-.19.87l-.03-.44c-.02-.68-.17-1.12-.48-1.47h.15zm13.64 1.78q0-1.3.05-2.16c.02-.4.02-.62.02-.69 0-.22-.07-.36-.17-.36-.05 0-.1.03-.14.07-.89.65-1.27.8-2.85 1.09-.65.11-.81.25-.81.57 0 .37.12.47.67.54.7.11.92.58.92 1.95v6c0 1.08-.12 1.73-.43 2.28-.36.69-1.01 1.12-1.64 1.12-.73 0-1.49-.61-1.85-1.52-.27-.69-.39-1.52-.39-2.89v-5.78c0-1.33.05-2.24.2-3.03.02-.11.02-.18.02-.25 0-.14-.07-.25-.17-.25-.05 0-.12.03-.19.07-.6.58-1.85 1.05-3.11 1.16-.44.04-.63.22-.63.58s.14.5.58.54c.68.03.89.54.89 2.02v5.96c0 1.55.12 2.49.43 3.32.48 1.34 1.64 2.24 2.87 2.24s2.02-.58 3.03-2.28c.08-.14.12-.18.17-.18.09 0 .17.15.17.36q0 1.88.21 1.88s.1 0 .14-.04c.94-.29 1.52-.36 3.23-.4.43 0 .63-.18.63-.58 0-.36-.14-.51-.46-.51-1.13 0-1.39-.43-1.39-2.28v-8.56zm-1.69 11.05c0 .54-.02.65-.17.65s-.17-.07-.17-.68v-9.79q0-1.7-.33-2.06c.53.33.67.8.67 2.2v9.68zm-6.7-4.23c0 2.96.43 4.04 2.1 5.24-1.78-.54-2.46-1.99-2.46-5.28v-5.96c0-.94-.1-1.37-.53-2.02.63.29.89.83.89 2.02v6zm14.43-9.76h1.92q.79 0 .94-.87l.15-.91c.07-.42.1-.62.1-.79 0-.25-.08-.41-.2-.41-.05 0-.12.04-.17.12-.47.83-.57.87-1.54.87-.57 0-.82-.04-1.22-.13v-3.61l.03-.96c0-.29-.07-.46-.17-.46-.13 0-.2.17-.6 1.12-.8 1.99-1.7 3.54-2.64 4.61-.3.33-.42.62-.42.87 0 .38.12.5.52.5h.89v10.72c0 1.58.02 1.83.23 2.62.35 1.25 1.19 1.99 2.31 1.99.99 0 1.96-.58 2.71-1.62.39-.54.57-.91.57-1.29 0-.25-.1-.41-.22-.41-.07 0-.15.04-.25.17-.52.58-1.02.87-1.62.87-.82 0-1.34-.79-1.34-2.08l.03-2.08v-8.85zm-.85-4.95c.08 1.54-1.19 3.66-2.34 3.86l.28-.33c.57-.66.82-1.04 1.49-2.33l.42-.87.15-.33zm-.9 4.9v11.05c0 1.37.08 1.87.43 2.57.25.46.4.62 1.21 1.21-1.27-.17-2.04-1.37-2.04-3.2 0-.08 0-.29.03-.5V94.23h.37zM49.61 52.18c-.5 2.23 3.25 10.69 9.83 14.87.27.17.85.62 1.01.91.12.35-.34.69-.75.75-1.76.33-5.19 1.21-5.68.9-.36.71-.94.42-1.71.71-.77.3-1.23.71-1.91.99-.26.13-.05.34.12.38.1.09.13.29-.44.54-.57.25-2.04 1.3-2.91 2.13-.5.07-1.18.09-1.64-.05-.96-.24-2.47.01-3.42-.4-.39-.16-1.03-1.03-1.01-1.67.08-2.69.76-4.15.84-6.36.06-1.52-.59-4.41-1.17-5.52-.72.34-.75.45-1.51.76-1.71.71-3.26 1.31-4.82 2.14-.94.49-2.15.84-2.48 2.09-.55 1.66-.69 2.13-1.39 3.87 1.81.48 3.44 3.07 3.85 4.85.36 1.42.19 2.68 1.76 3.51 1.19.31 2.29-.11 3.68-.17 1.23.28 1 1.64.34 2.07-1.4 1.49-3.73 2.5-4.29 2.79-2.1 1.05-5.42 3.52-7.33 4.43-.23.11-1.54.54-1.84.08-.4-.61-.84-1.34-1.42-1.51-1.86-.53-3.21-.67-3.51-2.59-.1-.59.37-2.04.99-2.87 5.47-5.24 8.04-16 8.65-16.61 2.35-1.73 12.89-4.44 16.99-8.74.02-.88-.64-1.86-.02-2.65l1.21.34z"/><path d="M49.61 52.18c-.5 2.23 3.25 10.69 9.83 14.87.27.17.85.62 1.01.91.12.35-.34.69-.75.75-1.76.33-5.19 1.21-5.68.9-.36.71-.94.42-1.71.71-.77.3-1.23.71-1.91.99-.26.13-.05.34.12.38.1.09.13.29-.44.54-.57.25-2.04 1.3-2.91 2.13-.5.07-1.18.09-1.64-.05-.96-.24-2.47.01-3.42-.4-.39-.16-1.03-1.03-1.01-1.67.08-2.69.76-4.15.84-6.36.06-1.52-.59-4.41-1.17-5.52-.72.34-.75.45-1.51.76-1.71.71-3.26 1.31-4.82 2.14-.94.49-2.15.84-2.48 2.09-.55 1.66-.69 2.13-1.39 3.87 1.81.48 3.44 3.07 3.85 4.85.36 1.42.19 2.68 1.76 3.51 1.19.31 2.29-.11 3.68-.17 1.23.28 1 1.64.34 2.07-1.4 1.49-3.73 2.5-4.29 2.79-2.1 1.05-5.42 3.52-7.33 4.43-.23.11-1.54.54-1.84.08-.4-.61-.84-1.34-1.42-1.51-1.86-.53-3.21-.67-3.51-2.59-.1-.59.37-2.04.99-2.87 5.47-5.24 8.04-16 8.65-16.61 2.35-1.73 12.89-4.44 16.99-8.74.02-.88-.64-1.86-.02-2.65l1.21.34z" stroke-width=".2" stroke="#fff" stroke-miterlimit="3.86" fill="none"/><path class="cls-8" d="M33.35 19.42l-4.53-1.05-2.4 3.98-.4-4.63-4.53-1.05 4.28-1.81-.41-4.63 3.05 3.51 4.28-1.82-2.39 3.99 3.05 3.51z"/></g><g clip-path="url(#clippath-3)"><path fill="url(#linear-gradient-2)" d="M42.06 55.62h16.2v17.6h-16.2z"/></g><g clip-path="url(#clippath-4)"><path class="cls-2" d="M48.68 55.62c-1.82 1.8-4.17 3.01-6.3 4.27.97 1.92 1.06 4.21 1.2 6.32-.03 2.2-1.52 4.13-.9 6.27.01.05.23.18.32.2 1.27.2 2.63.55 3.79.48l1.66-1.13s.18-.21.11-.25c-.13-.09-.23-.17-.29-.29-.04-.08 0-.25.13-.43.24-.18.5-.33.79-.46 1.25-.38 2.42-1.04 3.7-1.42.12-.21-.05-.54.29-.69 1.83.02 3.21-.44 4.93-.68.09-.01.17-.19 0-.29-3.74-2.23-6.27-5.53-8.23-9.31-.5-.86-.84-1.59-1.17-2.58z"/></g><g clip-path="url(#clippath-5)"><path fill="url(#linear-gradient-3)" d="M23 70.84h16.05v14.65H23z"/></g><g clip-path="url(#clippath-6)"><path class="cls-2" d="M30.04 70.84c-1.3 3.65-3.96 6.8-6.42 9.95-.38.74-.62 2.25.05 2.61 1.35.47 3.01.52 3.81 1.94.04.12.22.15.39.03 1.13-.78 4.92-2.91 7.08-4.13 1.38-.65 2.92-1.08 4.05-2.27.05-.06.02-.17-.05-.17-1.36-.02-2.73.65-3.9-.23-2.21-1.23-1.33-4.06-2.65-5.81-.67-.69-1.19-1.95-2.35-1.92z"/><path d="M103.38 11.41v3.46c.19-.14.38-.25.56-.33.18-.08.35-.14.54-.19.18-.05.46-.07.81-.07.47 0 .91.08 1.3.24.39.16.73.39 1.01.69.28.31.49.68.64 1.11.15.44.23.93.23 1.48s-.08 1.02-.24 1.43c-.16.42-.37.76-.65 1.02s-.62.47-1.02.61c-.4.15-.83.22-1.3.22-.93 0-1.64-.28-2.11-.84-.48-.56-.72-1.28-.72-2.17v-6.66h.96zm1.86 3.75c-.41 0-.76.05-1.05.15-.29.1-.56.25-.81.45v2.21c0 .69.15 1.23.44 1.61.3.38.79.57 1.48.57.4 0 .73-.06.98-.17.25-.11.47-.25.64-.43.17-.17.31-.41.41-.71.1-.3.14-.65.14-1.05 0-.37-.04-.71-.1-1.03-.07-.32-.19-.6-.36-.84-.18-.24-.41-.42-.69-.56-.29-.14-.65-.21-1.08-.21m4.06-3.74h1.6c2.19 0 3.7.35 4.55 1.05.84.7 1.26 1.89 1.26 3.57 0 1.89-.43 3.18-1.3 3.87-.87.69-2.38 1.03-4.52 1.03h-1.58V20h1.43c1.98 0 3.3-.28 3.95-.85.65-.57.97-1.57.97-3.01s-.32-2.4-.97-2.97c-.65-.56-1.97-.84-3.96-.84h-1.42v-.93zm8.52 9.53v-2.2c0-.74.01-1.45.04-2.1.03-.66.09-1.26.18-1.81s.23-1.04.41-1.47c.18-.44.42-.81.73-1.12.31-.32.7-.57 1.17-.77.47-.2 1.03-.29 1.66-.29s1.18.1 1.69.29c.51.19.92.45 1.24.77.32.32.57.71.75 1.14.18.43.32.93.41 1.48.09.55.15 1.15.17 1.81.02.66.03 1.35.03 2.09v2.2h-.96v-2.05c0-.71 0-1.37-.03-1.97-.02-.6-.06-1.14-.14-1.63-.07-.49-.17-.92-.3-1.29-.13-.37-.33-.7-.58-.97-.26-.28-.58-.5-.98-.66-.39-.17-.82-.25-1.3-.25-.52 0-.94.08-1.26.24-.32.16-.61.36-.86.61s-.44.55-.58.92c-.13.36-.24.79-.32 1.27-.08.49-.14 1.05-.16 1.67-.03.62-.04 1.31-.04 2.07v2.05h-.96zm9.62 0v-.93h6.3c.49 0 .9-.07 1.21-.21.32-.14.56-.32.75-.55.18-.23.31-.49.38-.79.07-.3.1-.6.1-.92 0-.45-.06-.83-.18-1.11-.12-.28-.29-.51-.5-.68-.21-.17-.46-.29-.75-.35a4.32 4.32 0 00-.91-.09h-1.12v-.93h.97c.51 0 .98.05 1.4.15.43.1.8.28 1.11.52.31.24.55.56.73.96.17.39.26.89.26 1.47s-.07 1.07-.21 1.5c-.14.44-.36.8-.66 1.08-.3.29-.68.51-1.14.65-.46.15-1.02.22-1.66.22h-6.08zm17.19-3.37c0 .64-.08 1.18-.23 1.63-.15.45-.37.81-.65 1.09s-.62.48-1.03.6c-.4.13-.86.19-1.36.19-.56 0-1.04-.08-1.44-.25a2.49 2.49 0 01-.98-.69c-.25-.3-.44-.64-.56-1.04-.12-.4-.18-.84-.18-1.31v-.92h.96v.9c0 .32.04.62.12.91.08.29.2.54.37.76.17.22.4.4.68.53s.63.2 1.05.2c.29 0 .58-.03.85-.1.28-.07.52-.19.73-.37.21-.18.38-.42.51-.73s.19-.7.19-1.18v-6.37h.96v6.16zm56.3 3.15l.07.22h-1.14l-3.68-7.82h-.04l-3.65 7.82h-1.14l.09-.26 4.63-9.35h.2l4.66 9.39zm1.21-9.31h2.34c.36 0 .7.02 1.04.06.34.04.66.1.97.19.31.09.58.23.83.41.29.22.52.52.69.89.17.38.26.87.26 1.47 0 .36-.03.68-.11.96-.07.28-.17.52-.29.74-.12.21-.27.4-.44.55-.17.16-.35.29-.55.4-.28.15-.57.26-.87.33-.3.07-.6.12-.89.15-.29.03-.56.03-.81.03h-1.2v3.34h-.96v-4.25h1.46c.36 0 .69 0 1.01-.02.32-.02.61-.05.88-.1s.51-.12.72-.21c.21-.09.4-.21.55-.36.17-.17.3-.38.39-.62.09-.25.13-.55.13-.91s-.04-.68-.12-.92c-.09-.24-.21-.44-.36-.6a1.54 1.54 0 00-.59-.36c-.23-.08-.49-.13-.78-.17-.29-.03-.6-.05-.94-.05h-2.35v-.94zm10.55.69h-.79c-.25 0-.48 0-.69.02-.21.02-.4.06-.55.12-.16.06-.28.16-.37.3-.09.14-.14.33-.14.57 0 .21.04.39.11.52s.18.24.31.31c.14.07.31.12.51.15.2.02.43.04.7.04h.94v2.75h-.82v-2.04h-.49c-.13 0-.26-.01-.42-.03-.15-.02-.31-.04-.46-.08-.15-.04-.3-.1-.45-.17-.15-.08-.27-.18-.39-.3-.11-.12-.2-.28-.27-.46-.07-.19-.1-.41-.1-.66 0-.38.07-.69.2-.92.14-.24.32-.42.55-.55.23-.13.5-.22.82-.27.31-.05.66-.07 1.01-.07h.79v.77zm1.96-.77v2.18c.21-.13.4-.22.57-.27.17-.05.36-.08.56-.08.26 0 .51.04.74.11.23.07.43.19.61.34.18.16.32.35.42.58.1.23.16.5.16.82 0 .3-.05.56-.16.8-.1.23-.24.43-.42.59-.18.16-.38.29-.61.37-.23.08-.47.13-.72.13-.28 0-.54-.04-.78-.11s-.45-.18-.63-.33c-.18-.15-.31-.33-.42-.54-.1-.22-.15-.48-.15-.77v-3.8h.81zm0 3.74c0 .19.03.35.09.48.06.14.14.25.24.34.1.09.22.15.36.19.14.04.29.07.45.07.35 0 .62-.1.8-.31.18-.2.27-.48.27-.83 0-.17-.02-.33-.06-.47a.89.89 0 00-.19-.36.932.932 0 00-.36-.23c-.15-.06-.33-.08-.55-.08-.24 0-.45.03-.62.09-.17.06-.33.15-.45.26v.85zm11.94-3.8h.12v1.02l-6.64 3.82v.06l6.64 3.84v1.02h-.11l-8.14-4.79v-.22l8.13-4.75zm3.24 3.75c-.36 0-.67-.04-.92-.11-.26-.08-.47-.2-.63-.35-.17-.16-.28-.36-.35-.6-.07-.24-.11-.52-.11-.85s.05-.6.14-.83c.1-.22.23-.4.4-.55.17-.14.38-.24.61-.3.23-.06.49-.09.77-.09h.66v.79h-.7c-.15 0-.29.02-.42.05a.746.746 0 00-.53.49c-.05.13-.08.29-.08.49 0 .14.01.28.04.41.03.13.08.25.16.35.08.1.19.18.32.24s.31.09.53.09h3.15v.79h-3.04zm13.52-.65v.92h-6.31c-.49 0-.89.07-1.21.2-.31.13-.57.31-.75.53-.18.22-.31.47-.37.76-.07.29-.1.58-.1.88 0 .43.06.8.18 1.09.12.3.29.54.5.72.21.19.46.32.74.39.28.08.58.12.91.12h1.13v.93h-.97c-.51 0-.98-.06-1.41-.19-.43-.12-.8-.32-1.1-.58-.31-.26-.55-.6-.72-1-.17-.4-.26-.88-.26-1.44 0-1.11.3-1.94.89-2.5.6-.56 1.52-.85 2.76-.85h6.1zm.68 1.89v-.22l7.8-4.72h.13v9.7h-.13l-7.8-4.76zm6.91-3.21l-5.19 3.05v.05l5.16 3.12h.1v-6.22h-.07zm3.04 7.89v-2.2c0-.74.01-1.45.04-2.1.02-.66.08-1.26.17-1.81.09-.55.23-1.04.41-1.47.18-.44.42-.81.73-1.12.3-.32.7-.57 1.17-.77.47-.2 1.03-.29 1.66-.29s1.18.1 1.69.29c.51.19.92.45 1.23.77.32.32.57.71.75 1.14.18.43.32.93.41 1.48.09.55.15 1.15.17 1.81.03.66.04 1.35.04 2.09v2.2h-.96v-2.05c0-.71 0-1.37-.03-1.97-.02-.6-.06-1.14-.14-1.63-.07-.49-.17-.92-.3-1.29-.13-.37-.32-.7-.58-.97-.26-.28-.58-.5-.97-.66-.39-.17-.82-.25-1.3-.25-.51 0-.94.08-1.26.24-.32.16-.61.36-.86.61-.24.25-.44.55-.57.92-.13.36-.24.79-.32 1.27-.08.49-.13 1.05-.16 1.67-.03.62-.04 1.31-.04 2.07v2.05H254zm11.52-5.92c-.36 0-.67-.04-.92-.11-.26-.08-.46-.2-.63-.35-.16-.16-.28-.36-.35-.6-.07-.24-.11-.52-.11-.85s.05-.6.14-.83c.1-.22.23-.4.4-.55.17-.14.37-.24.61-.3s.5-.09.77-.09h.66v.79h-.7c-.15 0-.29.02-.42.05a.746.746 0 00-.53.49c-.05.13-.08.29-.08.49 0 .14.01.28.04.41.03.13.08.25.16.35.08.1.19.18.32.24.14.06.31.09.53.09h3.15v.79h-3.04zm7.43 5.92c-.64 0-1.2-.07-1.66-.22-.46-.15-.84-.36-1.14-.65-.29-.29-.51-.65-.66-1.08-.14-.43-.21-.93-.21-1.5s.09-1.08.26-1.47c.17-.4.42-.71.72-.96.31-.24.68-.42 1.11-.52.43-.1.9-.15 1.41-.15h.97v.93h-1.12c-.33 0-.63.03-.91.09a1.696 1.696 0 00-1.24 1.03c-.12.29-.18.66-.18 1.11 0 .32.04.62.11.92.07.3.2.56.38.79.18.23.44.42.75.55.32.14.72.21 1.21.21h6.3v.93h-6.09zm16.54-5.44l-8.8 5.59h-.13v-1.11l7.35-4.63v-.08l-2.29-1.93c-.18-.15-.37-.29-.55-.44.03.51-.04 1.03-.22 1.56s-.46.92-.84 1.2c-.39.28-.81.42-1.26.42-.81 0-1.44-.22-1.88-.66-.45-.44-.67-1.07-.67-1.88 0-.71.22-1.28.66-1.71.44-.44 1.09-.65 1.97-.65.76 0 1.42.16 1.98.47.56.31 1.07.67 1.52 1.06l3.17 2.62v.18zm-6.77-3.44c-.54 0-.93.14-1.16.42-.24.28-.37.62-.37 1.02 0 .48.13.87.38 1.17.25.3.64.46 1.15.46.34 0 .63-.09.89-.28.26-.19.45-.49.58-.92.13-.43.17-.9.12-1.43a2.94 2.94 0 00-.7-.33c-.23-.07-.53-.1-.9-.1m12.13 4.81h-1.29c-1 0-1.76-.23-2.26-.68-.5-.45-.74-1.17-.74-2.16 0-.47.06-.89.19-1.23.13-.34.31-.62.56-.84.25-.22.56-.38.93-.49.37-.1.8-.15 1.29-.15h1.31v.86h-1.37c-.28 0-.54.02-.79.07s-.46.14-.64.27c-.18.14-.32.32-.42.56-.1.24-.16.56-.16.95 0 .43.07.78.18 1.04.12.26.29.46.49.59.21.14.44.23.72.27.27.04.56.06.86.06h1.12v.87zM102.29 36.74v-8.91h3.34c.68 0 1.23.09 1.63.27.41.18.74.46.97.83.23.37.35.77.35 1.17 0 .38-.1.74-.31 1.07-.21.34-.52.61-.94.82.54.16.95.43 1.25.81.29.38.43.83.43 1.35 0 .42-.09.8-.26 1.16-.18.36-.39.64-.65.83-.26.19-.59.34-.98.44-.39.1-.87.15-1.44.15h-3.39zm1.18-5.17h1.92c.52 0 .9-.03 1.12-.1.3-.09.53-.24.68-.45.15-.2.23-.46.23-.77 0-.3-.07-.56-.21-.78-.14-.22-.35-.38-.61-.46-.26-.08-.71-.12-1.35-.12h-1.78v2.69zm0 4.12h2.22c.38 0 .65-.02.81-.04.27-.05.5-.13.68-.24.18-.11.33-.28.45-.5.12-.21.18-.47.18-.75 0-.33-.08-.62-.25-.87-.17-.25-.41-.42-.71-.52-.3-.1-.74-.15-1.3-.15h-2.06v3.06zm11.2 1.05v-.94c-.5.73-1.19 1.09-2.05 1.09-.38 0-.74-.07-1.07-.22-.33-.14-.58-.33-.74-.55-.16-.22-.27-.49-.34-.81-.04-.21-.07-.56-.07-1.02v-4h1.1v3.58c0 .57.02.96.07 1.15.07.29.21.51.44.68.22.16.5.24.83.24s.64-.08.92-.25c.29-.17.49-.4.62-.69.12-.29.18-.71.18-1.26v-3.46h1.09v6.46h-.98zm2.88-8.91h1.09v1.26h-1.09v-1.26zm0 2.46h1.09v6.46h-1.09v-6.46zm2.92-2.46h1.1v8.91h-1.1zm6.92 8.91v-.82c-.41.64-1.01.96-1.81.96-.51 0-.99-.14-1.42-.43a2.73 2.73 0 01-1-1.19c-.24-.51-.35-1.09-.35-1.75s.11-1.23.32-1.75c.21-.52.54-.93.97-1.21.43-.28.91-.42 1.44-.42.39 0 .74.08 1.04.25.3.17.55.38.74.64v-3.2h1.09v8.91h-1.02zm-3.46-3.23c0 .83.18 1.45.52 1.86.35.41.76.61 1.23.61s.89-.2 1.22-.59c.33-.39.5-.99.5-1.79 0-.88-.17-1.53-.51-1.94-.34-.41-.76-.62-1.26-.62s-.89.2-1.22.6c-.33.4-.49 1.02-.49 1.88m6.4-5.69h1.09v1.26h-1.09v-1.26zm0 2.46h1.09v6.46h-1.09v-6.46zm2.95 6.45v-6.46h.98v.92c.48-.71 1.16-1.06 2.05-1.06.39 0 .75.07 1.07.21.33.14.57.32.73.55.16.23.28.5.34.81.04.21.06.56.06 1.07v3.97h-1.09v-3.93c0-.44-.04-.77-.12-1-.08-.22-.24-.4-.46-.53-.22-.13-.47-.2-.76-.2-.46 0-.87.15-1.21.44-.34.3-.51.86-.51 1.68v3.52h-1.09zm6.65.54l1.07.16c.04.33.16.57.37.72.27.2.64.31 1.11.31.51 0 .9-.1 1.17-.31.27-.2.46-.48.56-.85.06-.22.08-.69.08-1.4-.48.56-1.08.84-1.79.84-.89 0-1.57-.32-2.06-.96-.49-.64-.73-1.41-.73-2.3 0-.62.11-1.19.33-1.71.23-.52.55-.92.97-1.21.42-.28.92-.43 1.49-.43.77 0 1.39.31 1.89.92v-.78h1.01v5.58c0 1-.1 1.72-.31 2.13-.21.42-.53.75-.98 1-.45.24-.99.36-1.64.36-.77 0-1.39-.17-1.86-.52-.48-.35-.7-.86-.69-1.57m.91-3.88c0 .85.17 1.47.51 1.86.33.39.76.58 1.26.58s.92-.19 1.27-.58c.34-.39.51-.99.51-1.82s-.18-1.39-.53-1.79c-.35-.4-.77-.6-1.27-.6s-.9.2-1.24.59c-.34.39-.51.98-.51 1.76m71.7 3.36v-7.86h-2.93v-1.05h7.06v1.05h-2.95v7.86h-1.18zm3.35-3.23c0-1.19.33-2.08 1-2.66.56-.48 1.23-.72 2.03-.72.89 0 1.62.29 2.17.87.57.58.84 1.38.84 2.41 0 .83-.12 1.49-.37 1.96s-.61.84-1.09 1.11c-.47.26-.99.39-1.56.39-.91 0-1.63-.29-2.19-.87-.56-.58-.84-1.41-.84-2.5m1.12 0c0 .83.18 1.45.54 1.86.36.41.81.62 1.36.62s.99-.21 1.35-.62c.36-.41.54-1.04.54-1.89 0-.8-.18-1.4-.54-1.81-.36-.41-.81-.62-1.35-.62s-1 .2-1.36.61c-.36.41-.54 1.03-.54 1.85m6.21 3.78l1.06.16c.04.33.17.57.37.72.27.2.64.31 1.11.31.51 0 .9-.1 1.18-.31.27-.2.46-.48.56-.85.05-.22.08-.69.08-1.4-.48.56-1.07.84-1.79.84-.88 0-1.57-.32-2.06-.96-.49-.64-.73-1.41-.73-2.3 0-.62.11-1.19.33-1.71.22-.52.54-.92.97-1.21.42-.28.92-.43 1.49-.43.76 0 1.39.31 1.88.92v-.78h1.01v5.58c0 1-.1 1.72-.31 2.13-.21.42-.53.75-.97 1-.45.24-.99.36-1.64.36-.77 0-1.39-.17-1.87-.52-.48-.35-.7-.86-.69-1.57m.91-3.88c0 .85.17 1.47.5 1.86.33.39.76.58 1.27.58s.92-.19 1.26-.58c.34-.39.51-.99.51-1.82s-.18-1.39-.53-1.79c-.35-.4-.77-.6-1.26-.6s-.9.2-1.24.59c-.34.39-.51.98-.51 1.76m10.84 1.28l1.13.14c-.18.66-.51 1.17-.99 1.54-.48.36-1.1.55-1.85.55-.94 0-1.69-.29-2.24-.87-.55-.58-.83-1.4-.83-2.45s.28-1.93.84-2.53c.56-.6 1.28-.9 2.18-.9s1.57.3 2.12.88c.55.59.82 1.42.82 2.48v.29h-4.81c.04.71.24 1.25.6 1.63.36.38.81.56 1.35.56.4 0 .74-.1 1.03-.31.29-.21.51-.55.68-1.01m-3.59-1.77h3.6c-.05-.54-.19-.95-.41-1.22-.35-.42-.8-.63-1.36-.63-.5 0-.92.17-1.27.51-.34.34-.53.79-.57 1.35m8.65 2.86l.16.97c-.31.06-.58.1-.83.1-.39 0-.7-.06-.92-.19-.21-.12-.37-.29-.46-.5-.09-.21-.14-.64-.14-1.3v-3.71h-.8v-.85h.8v-1.6l1.09-.66v2.25h1.1v.85h-1.1v3.78c0 .31.02.51.06.6.04.09.1.16.19.21.09.06.21.08.37.08.12 0 .28-.01.48-.04m1.76.99v-8.91h1.09v3.2c.51-.59 1.16-.89 1.93-.89.48 0 .89.1 1.25.28.35.19.61.45.76.78.15.33.23.82.23 1.45v4.09h-1.09v-4.09c0-.55-.12-.95-.36-1.19-.24-.25-.57-.37-1-.37-.33 0-.63.08-.92.25-.29.17-.49.4-.61.68-.12.29-.18.68-.18 1.19v3.53h-1.09zm11.27-2.08l1.13.14c-.18.66-.51 1.17-.99 1.54-.48.36-1.1.55-1.85.55-.94 0-1.69-.29-2.25-.87-.55-.58-.83-1.4-.83-2.45s.28-1.93.84-2.53c.56-.6 1.29-.9 2.18-.9s1.57.3 2.11.88c.55.59.82 1.42.82 2.48v.29h-4.81c.04.71.24 1.25.6 1.63.36.38.81.56 1.35.56.4 0 .74-.1 1.03-.31.28-.21.51-.55.67-1.01m-3.59-1.77h3.6c-.05-.54-.19-.95-.41-1.22-.35-.42-.8-.63-1.36-.63-.5 0-.92.17-1.26.51-.34.34-.53.79-.57 1.35m6.27 3.84v-6.46h.98v.98c.25-.46.49-.76.7-.91.21-.15.45-.22.7-.22.37 0 .74.12 1.13.35l-.38 1.02a1.57 1.57 0 00-.8-.24c-.24 0-.45.07-.64.22-.19.14-.33.34-.41.59-.12.39-.18.82-.18 1.28v3.38h-1.09zm-100.69 8.81h1.09v8.91h-1.09zm3.37 0h1.09v1.26h-1.09v-1.26zm0 2.45h1.09v6.46h-1.09V48zm7.31 6.46v-.95c-.5.73-1.18 1.09-2.05 1.09-.38 0-.74-.07-1.07-.22-.33-.15-.58-.33-.74-.55-.16-.22-.27-.49-.34-.81-.04-.21-.07-.56-.07-1.02v-4h1.1v3.58c0 .57.02.95.07 1.15.07.29.21.52.43.68.23.16.5.24.83.24s.64-.08.92-.25c.29-.17.49-.4.61-.69.12-.29.18-.71.18-1.26v-3.46h1.09v6.46h-.98zm6.89 2.47v-3.16c-.17.24-.41.43-.72.59-.3.16-.63.24-.97.24-.77 0-1.43-.31-1.98-.92-.56-.61-.83-1.45-.83-2.52 0-.65.11-1.23.34-1.75.22-.51.55-.9.98-1.17.43-.27.89-.4 1.41-.4.8 0 1.43.34 1.89 1.01v-.86h.98v8.93h-1.09zm-3.37-5.72c0 .83.17 1.46.52 1.87.35.41.77.62 1.25.62s.87-.2 1.21-.6c.33-.39.51-.99.51-1.8 0-.86-.18-1.5-.53-1.94-.35-.44-.77-.65-1.25-.65s-.88.2-1.21.61c-.33.4-.49 1.03-.49 1.89m10.45 2.45c-.4.35-.79.59-1.17.73-.38.14-.78.22-1.21.22-.71 0-1.25-.17-1.64-.52-.38-.35-.57-.79-.57-1.33 0-.32.07-.6.22-.87.14-.26.33-.47.56-.63.24-.16.5-.28.79-.36.21-.06.54-.11.97-.16.88-.11 1.54-.23 1.95-.38v-.29c0-.44-.11-.76-.31-.94-.28-.25-.7-.37-1.25-.37-.52 0-.9.09-1.14.27-.24.18-.42.5-.54.96l-1.07-.15c.1-.46.26-.83.48-1.11.22-.28.55-.5.97-.65.42-.15.91-.23 1.46-.23s1 .06 1.34.19c.34.13.6.29.76.49.16.2.27.45.34.74.04.19.06.53.06 1.01v1.46c0 1.02.02 1.66.07 1.93s.14.53.28.77h-1.14c-.11-.23-.19-.49-.22-.8m-.09-2.44c-.4.16-1 .3-1.79.41-.45.06-.77.14-.96.22-.18.08-.33.2-.43.36a.93.93 0 00-.15.52c0 .29.11.53.33.73.22.19.54.29.97.29s.79-.09 1.12-.27c.33-.19.57-.44.72-.76.12-.25.18-.61.18-1.09v-.4zm5.28 2.28l.16.97c-.31.06-.59.1-.83.1-.4 0-.7-.06-.92-.19-.22-.12-.37-.29-.46-.5-.09-.2-.13-.64-.13-1.29v-3.71h-.8v-.85h.8v-1.6l1.09-.66V48h1.1v.85h-1.1v3.78c0 .31.02.51.06.6.04.09.1.16.19.21.09.06.21.08.37.08.12 0 .28-.01.48-.04m1.14-7.93h1.09v1.26h-1.09v-1.26zm0 2.45h1.09v6.46h-1.09V48zm2.63 6.99l1.06.16c.04.33.17.57.37.72.27.2.64.31 1.11.31.51 0 .9-.1 1.17-.31.28-.2.46-.48.56-.85.06-.22.08-.69.08-1.4-.48.56-1.07.85-1.79.85-.89 0-1.57-.32-2.06-.96-.49-.64-.73-1.41-.73-2.3 0-.62.11-1.18.33-1.71.22-.52.55-.92.98-1.2.42-.28.92-.42 1.49-.42.76 0 1.39.31 1.88.92v-.78h1.01v5.58c0 1-.1 1.72-.31 2.13-.21.42-.53.75-.97 1-.45.24-.99.36-1.64.36-.77 0-1.39-.17-1.87-.52-.47-.35-.7-.87-.69-1.57m.91-3.88c0 .85.17 1.47.5 1.86.33.39.75.58 1.26.58s.93-.19 1.27-.58c.34-.39.51-.99.51-1.82s-.18-1.39-.53-1.79c-.35-.4-.77-.6-1.27-.6s-.9.2-1.24.6c-.34.39-.51.98-.51 1.76m6.33-5.58h1.09v1.26h-1.09v-1.26zm0 2.45h1.09v6.46h-1.09V48zm3.09-2.45h1.09v1.26h-1.09v-1.26zm0 2.45h1.09v6.46h-1.09V48zm3.08 6.46V48h.98v.92c.48-.71 1.16-1.06 2.05-1.06.39 0 .75.07 1.07.21.33.14.57.32.73.55.16.23.27.5.34.81.04.2.06.56.06 1.06v3.97h-1.09v-3.93c0-.44-.04-.78-.13-1-.08-.22-.24-.4-.45-.53-.22-.13-.47-.2-.76-.2-.47 0-.87.15-1.2.45-.34.3-.51.85-.51 1.68v3.53h-1.09zm6.8.53l1.07.16c.04.33.17.57.37.72.27.2.64.31 1.11.31.51 0 .9-.1 1.18-.31.27-.2.46-.48.56-.85.06-.22.08-.69.08-1.4-.48.56-1.07.85-1.79.85-.88 0-1.57-.32-2.06-.96-.49-.64-.73-1.41-.73-2.3 0-.62.11-1.18.33-1.71.22-.52.55-.92.97-1.2.42-.28.92-.42 1.49-.42.77 0 1.39.31 1.89.92v-.78h1.01v5.58c0 1-.1 1.72-.31 2.13-.21.42-.53.75-.97 1-.45.24-.99.36-1.64.36-.77 0-1.39-.17-1.87-.52-.47-.35-.71-.87-.69-1.57m.91-3.88c0 .85.17 1.47.51 1.86.33.39.76.58 1.26.58s.92-.19 1.26-.58c.34-.39.51-.99.51-1.82s-.18-1.39-.53-1.79c-.35-.4-.77-.6-1.27-.6s-.9.2-1.24.6c-.34.39-.51.98-.51 1.76m6.3 3.33V48h.98v.92c.48-.71 1.16-1.06 2.06-1.06.39 0 .75.07 1.07.21.33.14.57.32.73.55.16.23.28.5.34.81.04.2.06.56.06 1.06v3.97h-1.09v-3.93c0-.44-.04-.78-.13-1-.08-.22-.23-.4-.45-.53s-.47-.2-.76-.2c-.47 0-.87.15-1.21.45-.34.3-.51.85-.51 1.68v3.53h-1.09zm7-8.91h1.09v1.26h-1.09v-1.26zm0 2.45h1.09v6.46h-1.09V48zm6.95 8.93v-3.16c-.17.24-.41.43-.71.59-.31.16-.63.24-.97.24-.77 0-1.43-.31-1.98-.92-.55-.61-.83-1.45-.83-2.52 0-.65.11-1.23.33-1.75.23-.51.55-.9.98-1.17.43-.27.89-.4 1.41-.4.8 0 1.42.34 1.88 1.01v-.86h.98v8.93h-1.09zm-3.37-5.72c0 .83.17 1.46.52 1.87.35.41.77.62 1.25.62s.87-.2 1.2-.6c.33-.39.5-.99.5-1.8 0-.86-.18-1.5-.53-1.94-.35-.44-.77-.65-1.25-.65s-.87.2-1.21.61c-.33.4-.5 1.03-.5 1.89M102.29 71.22v-8.91h3.34c.68 0 1.23.09 1.63.27.41.18.74.46.97.83.23.37.35.76.35 1.17 0 .38-.1.74-.31 1.08-.21.34-.52.61-.94.82.54.16.95.43 1.25.81.29.38.43.83.43 1.35 0 .42-.09.8-.26 1.17-.18.36-.39.64-.65.83-.26.2-.59.34-.98.44-.39.09-.87.15-1.44.15h-3.39zm1.18-5.17h1.92c.52 0 .9-.04 1.12-.1.3-.09.53-.24.68-.44.15-.21.23-.46.23-.78 0-.29-.07-.56-.21-.78-.14-.22-.35-.38-.61-.46-.26-.08-.71-.12-1.35-.12h-1.78v2.69zm0 4.12h2.22c.38 0 .65-.02.81-.04.27-.05.5-.13.68-.24.18-.12.33-.28.45-.5.12-.21.18-.46.18-.75 0-.33-.08-.62-.25-.87-.17-.25-.41-.42-.71-.51-.3-.1-.74-.15-1.3-.15h-2.06v3.06zm11.18.25c-.41.34-.8.59-1.17.73-.38.14-.78.22-1.21.22-.71 0-1.25-.17-1.64-.52-.38-.35-.57-.79-.57-1.33 0-.32.08-.6.22-.87.15-.26.33-.47.57-.63.23-.16.5-.28.79-.36.21-.06.54-.11.97-.16.88-.11 1.54-.23 1.95-.38v-.29c0-.44-.1-.76-.31-.94-.28-.25-.69-.37-1.25-.37-.51 0-.89.09-1.14.27-.24.18-.42.5-.54.96l-1.07-.15c.1-.46.26-.83.48-1.11.22-.28.55-.5.97-.65.42-.15.91-.23 1.46-.23s1 .06 1.35.2c.34.13.6.29.76.49.16.2.27.45.34.74.03.19.05.53.05 1.01v1.46c0 1.02.03 1.66.07 1.93.05.27.14.53.28.77h-1.14c-.11-.23-.19-.49-.22-.8m-1.59-7.5l-.69 1.03h-1.25l1.31-1.7h1.17l1.37 1.7h-1.24l-.67-1.03zm1.5 5.05c-.4.16-.99.3-1.79.41-.45.06-.77.14-.96.22-.18.08-.33.2-.43.36a.93.93 0 00-.15.52c0 .29.11.54.33.73.22.2.54.29.97.29s.8-.09 1.13-.27c.33-.19.57-.44.72-.76.12-.25.18-.61.18-1.09v-.4zm5.37 2.28l.16.97c-.3.07-.58.1-.83.1-.39 0-.7-.07-.92-.19-.22-.12-.37-.29-.46-.5-.09-.21-.14-.64-.14-1.29v-3.71h-.8v-.85h.8v-1.6l1.09-.66v2.25h1.1v.85h-1.1v3.78c0 .31.02.51.06.6.04.09.1.16.19.21.09.05.21.08.37.08.12 0 .28-.01.48-.04m1.52-7.93h1.1v1.26h-1.1v-1.26zm0 2.46h1.1v6.46h-1.1v-6.46zm2.93 6.45v-6.46h.98v.98c.25-.46.48-.76.7-.91.21-.15.44-.22.7-.22.37 0 .74.12 1.12.35l-.37 1.02a1.57 1.57 0 00-.8-.24c-.24 0-.45.07-.64.22-.19.14-.33.34-.41.6-.12.39-.19.82-.19 1.28v3.38h-1.09zm6.97-8.91h1.09v8.91h-1.09zm7.39 6.83l1.13.14c-.18.66-.51 1.17-.99 1.54-.48.37-1.1.55-1.85.55-.94 0-1.69-.29-2.24-.87-.56-.58-.83-1.4-.83-2.45s.28-1.93.84-2.53c.56-.6 1.29-.9 2.18-.9s1.57.3 2.12.88c.54.59.82 1.42.82 2.48v.29h-4.81c.04.71.24 1.25.6 1.63.36.38.81.56 1.35.56.4 0 .75-.1 1.03-.32.28-.21.51-.55.67-1.01m-3.59-1.77h3.6c-.05-.54-.19-.95-.41-1.22-.35-.42-.8-.63-1.36-.63-.5 0-.92.17-1.27.51-.34.34-.53.79-.57 1.35m71.59 1.77l1.13.14c-.18.66-.51 1.17-.99 1.54-.48.37-1.09.55-1.85.55-.94 0-1.69-.29-2.24-.87-.55-.58-.83-1.4-.83-2.45s.28-1.93.84-2.53c.56-.6 1.29-.9 2.18-.9s1.57.3 2.12.88c.54.59.82 1.42.82 2.48v.29h-4.81c.04.71.24 1.25.6 1.63.36.38.81.56 1.35.56.4 0 .75-.1 1.03-.32.28-.21.51-.55.68-1.01m-3.59-1.77h3.6c-.05-.54-.19-.95-.41-1.22-.35-.42-.8-.63-1.36-.63-.5 0-.92.17-1.26.51-.34.34-.53.79-.57 1.35m6 3.85v-6.46h.98v.92c.48-.71 1.16-1.06 2.06-1.06.39 0 .75.07 1.07.21.33.14.57.32.73.55.16.23.28.5.34.81.04.2.06.56.06 1.06v3.97h-1.09v-3.93c0-.45-.05-.78-.13-1-.08-.22-.24-.4-.46-.53-.21-.13-.47-.2-.76-.2-.46 0-.87.15-1.21.45-.34.3-.51.86-.51 1.68v3.53h-1.09zm6.43-1.93l1.08-.17c.06.43.23.77.51 1 .28.23.67.34 1.17.34s.87-.1 1.12-.3c.24-.21.37-.45.37-.72 0-.25-.11-.44-.32-.59-.15-.1-.52-.22-1.12-.37-.8-.2-1.36-.38-1.67-.52-.31-.15-.55-.35-.7-.62-.16-.26-.24-.55-.24-.86 0-.29.07-.55.2-.8s.31-.45.54-.61c.17-.12.4-.23.7-.32.29-.09.61-.13.94-.13.51 0 .95.07 1.33.22.38.15.67.34.85.59.18.25.31.59.37 1l-1.07.14c-.05-.33-.19-.59-.42-.78-.23-.19-.56-.28-.99-.28-.5 0-.86.08-1.08.25-.22.17-.32.36-.32.58 0 .14.05.27.14.38.09.12.23.21.42.29.11.04.43.14.97.28.77.21 1.32.38 1.62.51.31.13.54.32.72.57.17.26.26.57.26.94s-.11.71-.32 1.03c-.21.32-.52.57-.92.75-.4.18-.86.27-1.36.27-.84 0-1.48-.17-1.92-.53-.44-.35-.72-.86-.84-1.55m11-.14l1.13.14c-.18.66-.51 1.17-.99 1.54-.48.37-1.1.55-1.85.55-.94 0-1.69-.29-2.25-.87-.55-.58-.83-1.4-.83-2.45s.28-1.93.84-2.53c.56-.6 1.29-.9 2.18-.9s1.57.3 2.11.88c.55.59.82 1.42.82 2.48v.29h-4.81c.04.71.24 1.25.6 1.63.36.38.81.56 1.35.56.4 0 .74-.1 1.03-.32.28-.21.51-.55.67-1.01m-3.59-1.77h3.6c-.05-.54-.19-.95-.41-1.22-.35-.42-.8-.63-1.36-.63-.5 0-.92.17-1.27.51-.34.34-.53.79-.57 1.35m6.04 3.85v-6.46h.98v.91c.2-.32.47-.57.81-.76.33-.19.72-.29 1.15-.29.48 0 .87.1 1.17.3.31.2.52.48.65.83.51-.76 1.18-1.13 2-1.13.64 0 1.13.18 1.48.53.35.35.52.9.52 1.64v4.43h-1.09v-4.07c0-.44-.04-.75-.11-.95a.9.9 0 00-.38-.46c-.18-.12-.4-.18-.65-.18-.45 0-.83.15-1.13.45-.3.3-.45.78-.45 1.45v3.75h-1.09v-4.2c0-.49-.09-.85-.27-1.09-.18-.24-.47-.37-.87-.37-.31 0-.59.08-.86.24-.26.16-.45.4-.57.71-.12.31-.18.76-.18 1.35v3.35h-1.09zm11.31 0h-1.01v-8.91h1.09v3.18c.46-.58 1.05-.87 1.77-.87.4 0 .78.08 1.12.24.36.16.65.38.88.67.23.29.41.64.54 1.05.13.41.2.85.2 1.31 0 1.11-.27 1.96-.82 2.57-.54.6-1.2.9-1.97.9s-1.36-.32-1.79-.95v.81zm-.01-3.28c0 .77.11 1.33.32 1.68.34.56.81.84 1.4.84.48 0 .89-.2 1.24-.62s.53-1.03.53-1.86-.17-1.46-.5-1.86c-.34-.4-.74-.61-1.21-.61s-.89.21-1.24.63c-.35.41-.52 1.01-.52 1.8m5.82-5.63h1.09v8.91h-1.09zm7.15 6.83l1.13.14c-.18.66-.51 1.17-.99 1.54-.48.37-1.1.55-1.85.55-.94 0-1.69-.29-2.24-.87-.55-.58-.83-1.4-.83-2.45s.28-1.93.83-2.53c.56-.6 1.29-.9 2.18-.9s1.57.3 2.12.88c.55.59.82 1.42.82 2.48v.29h-4.81c.04.71.24 1.25.6 1.63.36.38.81.56 1.35.56.4 0 .74-.1 1.03-.32.28-.21.51-.55.68-1.01m-3.59-1.77h3.6c-.05-.54-.19-.95-.41-1.22-.35-.42-.8-.63-1.36-.63-.5 0-.93.17-1.27.51-.34.34-.53.79-.57 1.35" fill="#77787c"/><path class="cls-7" d="M163.8 26.67c-.04.05-.04.15 0 .3-.2.06-.34.27-.45.62-.06.2-.15.36-.29.45-.02.14-.17.59-.43 1.37-.19.57-.28 1.04-.27 1.38-.08.36-.28.87-.61 1.54-.04.39-.09.63-.13.72-.05.26-.15.48-.3.68-.21.98-.61 2.5-1.21 4.57-.12.73-.44 1.54-.95 2.43-.22-.05-.55-.13-.98-.25-1.18-1.23-2.17-3.21-2.98-5.92-.19-.39-.37-1.17-.52-2.36-.12-.29-.22-.73-.31-1.32-.1-.59-.19-1.02-.29-1.31h-.03c-.24.95-.57 2.36-1.01 4.23-.12.35-.25.99-.39 1.93-.13.82-.31 1.45-.53 1.89.04.08.07.17.08.27.01.22-.08.57-.28 1.06-.2.48-.29.84-.29 1.06s-.07.59-.2 1.11c-.13.52-.18.93-.13 1.21-.14.33-.35.51-.64.53-.47.04-.73-.11-.75-.44 0-.07.02-.24.07-.51.03-.22.03-.38-.02-.48.48-1.64 1.09-4.03 1.84-7.17.77-3.26 1.37-5.66 1.78-7.17.16-.11.33-.18.51-.19.47-.04.64-.05.49-.02.18.19.4.34.65.45.01 1.03.18 1.85.5 2.46-.02.25-.01.52 0 .81.03.37.11.86.23 1.5.15.73.25 1.22.29 1.46.65 2.32 1.43 4.07 2.36 5.26-.05-.11.02-.28.2-.52.03-.32.16-.8.39-1.42.23-.62.36-1.1.39-1.42l1.39-4.81c.57-1.76 1.24-3.3 2.01-4.61.31-.19.51-.29.58-.3.29-.02.45.09.46.34l-.22.58zm5.39 6.72c-.73 1.5-1.22 3.23-1.49 5.19.16-.29.34-.67.56-1.13.03-.09.08-.13.14-.14.1 0 .15.04.16.16 0 .04 0 .07-.02.12-.34.88-.55 1.55-.64 2.02-.06.3-.15.45-.27.46-.13.01-.39-.08-.77-.28-.21-.11-.29-.33-.26-.66.16-1.28.4-2.41.7-3.37-1.08 1.92-2 3.35-2.77 4.28-.17.21-.36.32-.57.34-.18.01-.4-.04-.65-.15-.45-.04-.68-.22-.71-.57v-.21c.02-1.67.24-3.07.65-4.21l-.45.45c-.08.07-.14.09-.19.07-.05-.03-.05-.1.01-.21.31-.48.49-.8.54-.95.16-.47.34-.84.53-1.1.11-.14.22-.21.35-.22.17-.02.43.06.78.21.09.04.14.1.15.15l-.19.31c-.29.46-.56 1.27-.82 2.41-.29 1.24-.4 2.23-.35 2.99.02.25.09.37.2.36.1-.01.26-.13.47-.36.45-.52 1.09-1.47 1.91-2.87.72-1.23 1.16-2.03 1.3-2.4.24-.62.45-.98.61-1.1.1-.08.21-.12.29-.13.09 0 .27.04.53.14s.4.18.41.24c0 .02-.02.04-.07.07-.04.03-.07.06-.08.1m7.95 2.57c-.34.56-.77 1.36-1.3 2.41-.1.27-.18.54-.27.81-.08.19-.19.28-.33.3-.12 0-.29-.02-.52-.09-.26-.07-.39-.16-.4-.25 0-.04.03-.13.1-.28.35-.8.64-1.78.88-2.95.25-1.23.33-2.16.22-2.79-.03-.25-.11-.37-.22-.36-.08 0-.2.09-.35.25-1.49 1.56-2.72 3.58-3.7 6.06-.12.3-.29.47-.48.48-.14 0-.37-.04-.71-.16-.13-.04-.2-.08-.21-.13 0-.02.02-.1.08-.25.31-.77.6-1.73.87-2.89.29-1.25.43-2.23.43-2.92 0-.21-.02-.31-.04-.31 0 0-.09.09-.25.26s-.38.39-.67.67c-.05.06-.12.09-.18.09-.09 0-.14-.02-.14-.08 0-.05.02-.1.08-.16.25-.34.57-.77.98-1.28.09-.11.19-.16.29-.17.16-.01.3.08.43.27.52.1.79.29.78.58-.02.64-.28 1.82-.79 3.54.37-.78.92-1.67 1.66-2.66.74-.99 1.3-1.59 1.68-1.79.19-.1.33-.15.41-.16.08 0 .23.05.42.16.54.12.83.38.85.77.03.4-.02 1.06-.17 1.98-.11.76-.22 1.35-.34 1.77.17-.23.38-.53.64-.89.05-.06.09-.1.15-.1.09 0 .15.05.16.15 0 .03 0 .07-.01.11m7.7-3.35c-.46 1.53-.77 2.8-.91 3.82.08-.09.2-.22.34-.41.14-.18.23-.29.27-.32.08-.11.17-.17.27-.18.09 0 .15.03.15.12 0 .05-.02.12-.06.19-.54.85-.87 1.7-1 2.54-.04.24-.12.36-.23.37-.11 0-.32-.07-.62-.23-.18-.09-.29-.17-.32-.23-.04-.06-.05-.19-.03-.38.14-1.49.38-2.74.7-3.75-.49.86-1.17 1.83-2.04 2.9-.76.93-1.32 1.53-1.67 1.8-.25.19-.45.29-.59.3-.11 0-.29-.06-.54-.21-.35-.16-.54-.4-.57-.72V38c.04-.87.38-1.9.99-3.1.62-1.2 1.36-2.22 2.22-3.08.28-.28.54-.43.77-.44.23 0 .69.23 1.38.72.06.04.09.09.1.14 0 .09-.05.14-.19.15-.06 0-.1 0-.15-.01-.47-.14-.83-.1-1.09.11-.56.45-1.17 1.21-1.81 2.27-.74 1.23-1.16 2.31-1.26 3.25v.12c0 .14.08.21.21.2.22-.02.46-.17.74-.47.66-.69 1.36-1.55 2.09-2.57.75-1.06 1.23-1.85 1.42-2.38.14-.38.23-.66.27-.81.06-.26.14-.4.24-.41.09 0 .32.09.7.3.16.08.24.17.26.25.02.07 0 .19-.06.37m7.43-1.11c-.13.34-.28.75-.45 1.22.06.12.22.3.48.56.05.06.05.12 0 .18-.06.06-.15.09-.25.1a.547.547 0 01-.42-.16c-.35.9-.75 1.81-1.22 2.75-.48.99-.84 1.62-1.06 1.86-.2.21-.4.32-.61.34a.73.73 0 01-.54-.17c-.24.11-.41.17-.51.18-.22.02-.41-.14-.56-.48-.21-.49-.35-1.19-.42-2.11-.11-1.32-.07-2.31.12-2.98-.12.13-.37.4-.74.83-.07.08-.14.12-.23.12-.12 0-.19-.04-.2-.13 0-.05.02-.11.07-.19.35-.5.79-1.16 1.35-1.99.14-.22.3-.34.47-.35.19-.02.5.1.91.34.09.06.14.12.14.2.02.14-.09.26-.32.35-.47 1.13-.65 2.38-.54 3.74.06.7.2 1.28.42 1.73.09.18.19.27.31.25.12 0 .25-.12.4-.33.44-.66.86-1.46 1.27-2.4.36-.84.59-1.51.69-2.01-.09-.13-.15-.3-.17-.52-.03-.39.06-.93.29-1.61.1-.28.25-.43.44-.45.11 0 .34.06.69.21.17.07.26.18.28.33 0 .1-.02.29-.09.57m7.87-.64c-.73 1.5-1.23 3.23-1.49 5.19.15-.3.34-.68.56-1.14.03-.09.07-.13.14-.14.1 0 .15.04.16.15 0 .03 0 .07-.02.11-.34.88-.56 1.55-.64 2.02-.05.3-.14.45-.27.46-.13.01-.39-.08-.78-.28-.2-.11-.29-.33-.25-.66.16-1.28.39-2.41.69-3.37-1.08 1.92-2 3.35-2.77 4.28-.17.2-.36.32-.57.34-.18.01-.4-.04-.65-.15-.44-.03-.68-.22-.71-.57v-.21c.02-1.67.24-3.07.65-4.21l-.45.45c-.08.07-.14.09-.19.07-.06-.03-.05-.1.01-.2.31-.49.48-.8.54-.95.16-.47.34-.84.53-1.1.1-.14.22-.21.35-.22.17-.01.43.06.78.22.09.04.14.09.15.14l-.18.3c-.29.46-.56 1.27-.82 2.41-.29 1.24-.41 2.24-.35 3 .02.25.09.37.2.36.1 0 .26-.13.47-.36.45-.52 1.09-1.47 1.91-2.87.72-1.23 1.16-2.03 1.3-2.4.24-.62.45-.98.62-1.1.11-.08.2-.12.29-.13.09 0 .27.04.53.14s.4.18.4.24c0 .02-.02.05-.06.08-.04.03-.07.07-.08.1m5.82-5.3c.18.07.28.17.29.27 0 .08-.05.12-.17.13h-.24c-.24.02-.52.29-.82.79-.27.45-.62 1.42-1.04 2.9-.04.13-.05.21-.04.23.02.04.11.05.25.05.38 0 .88-.05 1.51-.16.22-.03.33.04.34.23.01.13-.07.21-.23.26-.13.03-.83.14-2.1.33-.6 2.1-.92 3.86-.97 5.28v.2c.01.19.08.29.19.28.17-.01.66-.43 1.46-1.26.09-.1.19-.16.29-.17.08 0 .14.02.16.08.03.07 0 .15-.06.25-.47.66-.93 1.23-1.39 1.7-.2.2-.36.3-.5.31-.14.01-.37-.07-.68-.25-.37-.06-.57-.22-.59-.48v-.14c.11-1.51.42-3.39.93-5.63-.34-.02-.65-.03-.93-.05-.12 0-.19-.07-.2-.19 0-.14.05-.22.17-.26.12-.04.36-.12.7-.25.2-.08.4-.19.59-.31.52-1.97.95-3.26 1.3-3.86.2-.34.42-.53.67-.55.24-.02.6.07 1.09.26m-49.33 34.12c-.04.06-.04.15 0 .3-.19.07-.34.27-.44.62-.06.2-.15.35-.29.45-.02.14-.17.6-.43 1.38-.2.57-.29 1.04-.27 1.38-.08.36-.29.87-.61 1.54-.04.39-.09.63-.13.72-.05.26-.15.48-.3.68-.21.98-.62 2.5-1.21 4.57-.12.73-.44 1.54-.96 2.43-.22-.05-.54-.13-.98-.25-1.18-1.23-2.17-3.21-2.98-5.92-.19-.39-.37-1.17-.52-2.36-.11-.29-.22-.74-.31-1.33-.09-.59-.19-1.02-.29-1.3h-.03c-.24.95-.58 2.36-1.01 4.23-.12.35-.25.99-.39 1.93-.13.82-.31 1.45-.53 1.89.04.08.07.17.08.27.01.22-.07.57-.27 1.06-.2.49-.29.84-.29 1.06s-.07.59-.2 1.11c-.13.53-.18.93-.13 1.21-.14.33-.35.51-.64.53-.48.04-.73-.11-.75-.44 0-.07.02-.24.07-.51.04-.22.03-.38 0-.48.47-1.63 1.09-4.02 1.84-7.17.77-3.26 1.36-5.65 1.78-7.17.16-.11.32-.18.51-.19.47-.04.64-.04.49-.02.18.19.4.34.64.46 0 1.02.18 1.84.5 2.46-.02.25-.01.52 0 .81.03.37.11.86.24 1.49.15.73.25 1.22.29 1.47.65 2.32 1.43 4.07 2.35 5.26-.04-.11.02-.29.21-.52.03-.32.16-.8.39-1.42.23-.62.36-1.1.39-1.42l1.39-4.81c.57-1.76 1.24-3.3 2.01-4.61.31-.19.51-.29.58-.3.29-.02.45.09.47.34l-.23.58zm5.38 6.73c-.73 1.5-1.22 3.23-1.49 5.19.15-.29.34-.68.56-1.14.03-.09.07-.13.14-.14.1 0 .15.04.16.16 0 .04 0 .07-.02.12-.34.88-.55 1.55-.64 2.02-.05.3-.15.45-.27.46-.13.01-.39-.08-.78-.28-.21-.11-.29-.33-.25-.66.16-1.28.39-2.41.69-3.37-1.08 1.92-2 3.35-2.77 4.28-.17.21-.36.31-.58.34-.17.01-.39-.04-.65-.15-.44-.03-.68-.22-.71-.57v-.21c.02-1.67.24-3.07.65-4.21l-.45.45c-.08.07-.14.09-.19.07-.06-.03-.05-.1.01-.21.31-.48.49-.8.54-.95.16-.47.34-.83.54-1.1.11-.14.22-.22.35-.22.17-.01.43.06.77.21.1.04.14.1.15.15l-.19.3c-.28.46-.56 1.27-.82 2.41-.29 1.24-.41 2.24-.35 3 .02.25.09.37.2.36.1 0 .26-.13.47-.36.45-.52 1.09-1.47 1.91-2.87.72-1.23 1.16-2.03 1.3-2.4.24-.62.44-.98.62-1.1.11-.08.2-.12.29-.13.09 0 .27.04.54.14.26.1.4.18.4.24 0 .02-.02.04-.06.07-.04.03-.07.07-.09.1m7.96 2.57c-.34.56-.77 1.36-1.3 2.41l-.27.81c-.08.19-.19.28-.34.3-.12 0-.29-.02-.52-.09-.25-.07-.39-.16-.4-.25 0-.04.03-.13.1-.28.35-.8.64-1.78.87-2.95.25-1.23.33-2.15.22-2.79-.03-.25-.11-.37-.22-.36-.08 0-.2.09-.35.25-1.49 1.56-2.72 3.58-3.7 6.06-.12.3-.29.47-.48.48-.14.01-.38-.04-.71-.16-.13-.04-.2-.08-.21-.13 0-.03.03-.11.09-.26.31-.76.6-1.73.87-2.89.29-1.25.43-2.23.42-2.91 0-.21-.02-.31-.04-.31 0 0-.09.09-.25.26s-.38.39-.66.67c-.05.06-.12.09-.19.1-.09 0-.14-.02-.14-.09 0-.05.02-.1.08-.16.25-.34.58-.77.98-1.28.09-.11.18-.17.28-.17.16-.01.3.08.43.27.53.1.79.29.78.58-.01.64-.28 1.82-.79 3.54.37-.79.92-1.67 1.66-2.66.74-.99 1.3-1.59 1.68-1.79.19-.1.33-.15.41-.16.08 0 .23.04.42.16.54.12.83.38.85.77.03.4-.02 1.06-.16 1.98-.11.76-.22 1.35-.34 1.77.17-.23.38-.53.64-.89.04-.06.09-.1.15-.1.09 0 .15.04.16.15v.11m7.72-3.34c-.47 1.53-.77 2.8-.91 3.82.09-.09.21-.23.35-.41.14-.18.23-.29.27-.32.08-.11.17-.18.27-.18s.15.03.16.12c0 .05-.01.11-.06.19-.53.85-.86 1.7-.99 2.54-.04.24-.11.36-.23.37-.11 0-.32-.07-.62-.23-.18-.09-.29-.17-.32-.24-.04-.06-.05-.19-.03-.38.15-1.49.38-2.74.7-3.75-.49.86-1.17 1.83-2.05 2.9-.76.93-1.32 1.53-1.67 1.8-.25.19-.45.29-.59.3-.11 0-.29-.06-.54-.21-.36-.16-.54-.4-.57-.72v-.22c.05-.87.38-1.9.99-3.1.62-1.2 1.36-2.22 2.22-3.08.28-.28.54-.42.77-.44.23 0 .69.23 1.38.72.06.04.09.09.1.14 0 .09-.05.14-.19.16-.06 0-.1 0-.15-.02-.47-.14-.83-.1-1.09.11-.57.45-1.17 1.21-1.81 2.27-.74 1.23-1.16 2.31-1.26 3.25v.12c.01.15.08.21.21.2.22-.02.46-.17.74-.47.66-.69 1.36-1.55 2.1-2.57.75-1.06 1.23-1.85 1.42-2.37.14-.38.23-.66.27-.81.06-.27.14-.4.23-.41.1 0 .33.09.7.3.16.08.24.17.26.25.02.07 0 .19-.05.37m7.39-1.11c-.13.35-.28.75-.45 1.22.05.11.22.3.48.56.05.05.05.11-.01.18-.06.06-.15.09-.25.1a.547.547 0 01-.42-.16c-.35.9-.75 1.81-1.21 2.75-.48.99-.84 1.61-1.06 1.86-.2.21-.4.32-.61.34-.2.02-.38-.04-.54-.17-.24.11-.41.17-.51.18-.23.02-.41-.14-.56-.49-.21-.49-.35-1.19-.42-2.11-.11-1.32-.07-2.31.13-2.98-.13.12-.37.4-.74.83-.07.08-.14.12-.23.13-.12 0-.19-.04-.19-.13 0-.05.02-.11.07-.19.34-.5.79-1.16 1.35-1.99.14-.22.29-.34.47-.35.19-.02.5.1.91.34.09.06.14.12.14.2.01.14-.09.26-.32.35-.47 1.13-.65 2.38-.54 3.74.06.7.2 1.28.42 1.73.09.18.19.27.31.25.12 0 .25-.12.4-.33.44-.66.86-1.45 1.26-2.4.36-.84.59-1.51.69-2.01-.09-.13-.15-.3-.17-.52-.03-.4.06-.93.29-1.61.1-.28.25-.43.43-.44.11-.01.34.06.69.21.17.07.27.18.28.33 0 .11-.02.29-.09.57m7.87-.65c-.73 1.5-1.23 3.23-1.49 5.2.15-.3.34-.68.56-1.14.02-.08.07-.13.14-.14.1 0 .15.05.16.15 0 .03 0 .07-.02.11-.33.88-.55 1.55-.64 2.02-.05.29-.14.45-.27.46-.13.01-.39-.08-.78-.28-.21-.11-.29-.33-.26-.66.16-1.28.4-2.41.7-3.37-1.08 1.92-2 3.35-2.77 4.28-.17.21-.36.32-.58.34-.18.01-.39-.04-.65-.15-.45-.03-.68-.22-.71-.57v-.21c.02-1.67.24-3.07.65-4.21l-.45.45c-.08.07-.14.1-.19.07-.05-.03-.05-.1.01-.2.3-.49.48-.8.54-.95.16-.47.34-.84.53-1.1.11-.14.22-.21.35-.22.17-.01.43.06.78.22.09.04.14.09.15.15l-.19.3c-.29.46-.55 1.27-.82 2.41-.29 1.24-.41 2.24-.35 2.99.02.25.09.37.21.36.1 0 .26-.13.47-.36.45-.52 1.09-1.47 1.91-2.87.72-1.23 1.16-2.03 1.3-2.4.24-.62.45-.98.61-1.1.11-.08.21-.12.29-.13.09 0 .27.04.53.14.27.1.4.18.41.24 0 .02-.02.04-.06.08-.04.03-.07.07-.09.1m5.85-5.31c.18.07.28.17.29.27 0 .08-.05.12-.17.13h-.24c-.24.02-.52.29-.82.79-.27.45-.61 1.42-1.04 2.9-.04.13-.05.21-.04.23.02.04.11.05.25.05.38 0 .88-.05 1.51-.16.22-.03.33.04.35.23.01.13-.07.21-.23.26-.13.03-.83.14-2.1.33-.6 2.1-.92 3.86-.97 5.28v.2c.01.19.08.29.19.28.17-.01.66-.43 1.46-1.26.09-.1.19-.16.29-.16.08 0 .13.02.16.08.03.07 0 .15-.07.25-.46.66-.93 1.23-1.39 1.71-.2.2-.36.3-.5.31-.14 0-.37-.07-.68-.25-.37-.06-.57-.21-.59-.48v-.14c.11-1.51.42-3.39.93-5.63-.34-.01-.65-.03-.93-.05-.12 0-.19-.07-.2-.19 0-.14.05-.22.17-.26.12-.04.35-.12.69-.25.2-.08.4-.19.59-.31.52-1.98.96-3.26 1.3-3.86.2-.34.42-.52.68-.55.24-.02.6.07 1.09.26m-82.41-15.41c-.03.06-.03.15 0 .3-.19.07-.34.27-.44.62-.06.2-.16.36-.29.45-.02.14-.17.6-.43 1.37-.19.57-.28 1.04-.27 1.39-.08.36-.29.87-.62 1.54-.04.39-.08.63-.13.72-.05.26-.15.48-.3.68-.21.98-.62 2.5-1.22 4.58-.12.73-.44 1.54-.95 2.43-.22-.05-.55-.13-.98-.25-1.18-1.23-2.17-3.21-2.98-5.92-.19-.39-.37-1.18-.52-2.36-.11-.29-.22-.73-.31-1.32-.09-.59-.19-1.02-.29-1.3h-.03c-.23.95-.57 2.36-1.01 4.23-.12.35-.25.99-.39 1.93-.14.82-.31 1.45-.53 1.89.04.08.07.17.08.27.02.22-.07.57-.27 1.06-.2.49-.3.84-.3 1.06s-.06.59-.2 1.11c-.13.53-.18.93-.13 1.21-.13.33-.35.51-.64.53-.47.04-.72-.11-.75-.45 0-.07.02-.24.07-.51.04-.22.03-.38-.01-.48.47-1.64 1.09-4.03 1.84-7.17.77-3.26 1.37-5.66 1.79-7.17.15-.11.32-.18.51-.19.47-.04.64-.05.49-.02.18.19.39.34.64.45 0 1.03.17 1.85.5 2.46-.01.25 0 .52.01.81.03.37.11.86.24 1.5.15.73.25 1.22.29 1.47.65 2.32 1.43 4.07 2.36 5.26-.05-.11.02-.28.2-.52.03-.32.16-.8.39-1.42.23-.62.36-1.1.39-1.42l1.4-4.81c.57-1.76 1.24-3.3 2-4.61.31-.19.51-.29.58-.3.29-.02.45.09.47.34l-.23.58zm5.39 6.73c-.73 1.5-1.23 3.23-1.48 5.19.15-.29.34-.68.56-1.14.02-.09.07-.13.14-.14.1 0 .15.04.16.16 0 .04 0 .07-.02.12-.34.88-.55 1.55-.64 2.02-.05.3-.14.45-.27.46-.13.01-.39-.08-.78-.28-.21-.11-.29-.33-.25-.66.16-1.28.39-2.41.69-3.37-1.08 1.92-2 3.35-2.77 4.28-.17.21-.36.32-.58.34-.18.01-.39-.04-.65-.15-.44-.04-.68-.22-.71-.57v-.21c.02-1.67.24-3.07.65-4.21l-.45.45c-.08.07-.14.09-.19.07-.05-.03-.05-.1.01-.21.31-.48.49-.8.54-.95.16-.47.34-.83.53-1.1.11-.14.22-.22.35-.22.17-.01.43.06.77.21.1.04.14.1.15.15l-.19.31c-.28.46-.55 1.27-.81 2.41-.3 1.24-.41 2.24-.35 3 .02.25.09.37.2.36.1 0 .26-.13.47-.36.45-.52 1.09-1.47 1.91-2.87.72-1.23 1.16-2.03 1.3-2.4.24-.62.44-.98.62-1.1.1-.08.2-.12.29-.13.09 0 .27.04.53.14.27.1.4.18.4.24 0 .02-.02.05-.06.08-.05.03-.07.06-.09.1m7.96 2.55c-.34.56-.77 1.36-1.3 2.41l-.27.81c-.08.19-.19.28-.34.3-.11.01-.29-.02-.51-.09-.25-.07-.39-.16-.4-.25 0-.04.03-.13.1-.28.35-.8.64-1.78.87-2.95.25-1.23.32-2.16.22-2.78-.03-.25-.11-.37-.22-.36-.08 0-.2.09-.35.25-1.49 1.56-2.72 3.58-3.69 6.06-.12.3-.28.47-.48.48-.14.01-.38-.04-.71-.16-.14-.04-.2-.08-.22-.13 0-.02.03-.1.08-.25.31-.76.6-1.73.87-2.89.29-1.25.43-2.23.42-2.91 0-.21-.02-.31-.04-.31l-.25.25c-.16.17-.38.39-.67.67-.05.06-.11.09-.18.09-.09 0-.14-.02-.14-.08 0-.05.03-.1.08-.16.25-.34.57-.77.98-1.28.09-.11.19-.16.29-.17.15-.01.3.08.43.27.53.09.79.29.78.58-.01.64-.28 1.82-.79 3.54.37-.78.92-1.67 1.66-2.66.74-.99 1.3-1.59 1.68-1.79.19-.1.33-.15.41-.16.09 0 .23.05.42.16.54.12.83.38.85.77.04.4-.02 1.06-.16 1.98-.11.76-.22 1.35-.34 1.77.17-.23.38-.53.64-.89.04-.06.1-.1.15-.1.1 0 .15.05.16.15 0 .03 0 .07-.01.11m7.72-3.35c-.47 1.52-.77 2.8-.91 3.82.09-.09.21-.23.35-.41.14-.18.23-.29.27-.32.08-.11.17-.17.27-.18.1 0 .15.03.16.12 0 .05-.02.11-.06.19-.53.85-.86 1.7-.99 2.54-.04.24-.12.36-.23.37-.11.01-.32-.07-.62-.23-.18-.09-.29-.17-.32-.24-.04-.06-.05-.19-.03-.38.14-1.5.38-2.74.7-3.75-.49.86-1.17 1.83-2.04 2.9-.76.93-1.31 1.53-1.67 1.8-.25.19-.45.29-.59.3-.11 0-.3-.06-.54-.21-.36-.16-.54-.4-.57-.72v-.22c.05-.87.38-1.9.99-3.1.62-1.2 1.36-2.22 2.22-3.08.28-.28.54-.43.77-.44.23 0 .69.23 1.38.72.06.04.09.09.1.14 0 .09-.06.14-.18.15-.05 0-.1 0-.15-.01-.47-.14-.83-.1-1.09.11-.57.45-1.17 1.21-1.81 2.27-.75 1.23-1.17 2.31-1.26 3.25v.12c.01.15.08.21.21.2.21-.02.46-.17.74-.47.66-.69 1.36-1.55 2.1-2.57.75-1.06 1.23-1.85 1.42-2.37.14-.38.23-.66.27-.81.06-.27.14-.4.23-.41.1 0 .33.09.7.3.16.08.24.17.26.25.02.07 0 .19-.05.37m7.38-1.11c-.14.35-.29.75-.45 1.22.05.11.21.3.48.55.05.06.04.12-.01.18-.06.06-.14.09-.25.1a.547.547 0 01-.42-.16c-.34.9-.75 1.81-1.21 2.75-.48.99-.83 1.61-1.06 1.86-.19.21-.39.32-.61.34-.2.02-.38-.04-.54-.17-.23.11-.41.17-.52.18-.22.02-.4-.14-.56-.48-.21-.49-.35-1.19-.43-2.11-.11-1.32-.06-2.31.13-2.98-.13.13-.38.4-.74.83-.07.08-.14.12-.23.12-.12.01-.18-.04-.19-.13 0-.05.02-.11.07-.19.34-.5.79-1.16 1.35-1.99.14-.22.3-.34.47-.35.19-.01.49.1.91.34.09.06.14.12.14.2.01.14-.09.26-.32.35-.47 1.13-.65 2.38-.54 3.74.05.7.19 1.28.42 1.73.09.18.19.27.31.25.12-.01.25-.12.4-.33.44-.66.86-1.45 1.26-2.4.36-.84.59-1.51.69-2.01-.1-.13-.15-.3-.17-.52-.03-.39.07-.93.29-1.61.1-.28.24-.43.44-.44.11-.01.34.06.69.21.17.08.27.18.28.33 0 .1-.02.29-.08.57m7.86-.64c-.73 1.5-1.23 3.23-1.48 5.19.15-.3.34-.68.56-1.14.02-.09.07-.13.14-.14.1 0 .14.04.15.15 0 .03 0 .07-.02.11-.34.88-.55 1.55-.64 2.02-.05.3-.14.45-.27.46-.13.01-.38-.08-.78-.28-.21-.11-.29-.33-.26-.66.16-1.28.4-2.41.7-3.37-1.08 1.92-2 3.35-2.77 4.28-.17.2-.36.32-.58.34-.18.01-.39-.04-.65-.15-.45-.03-.68-.22-.71-.57v-.21c.02-1.67.24-3.07.65-4.21l-.45.45c-.08.07-.14.09-.19.07-.05-.03-.05-.1.01-.2.31-.49.49-.8.54-.95.16-.47.34-.84.54-1.1.1-.14.22-.21.35-.22.17-.01.43.06.78.22.1.04.14.09.14.15l-.18.3c-.28.46-.56 1.27-.82 2.41-.29 1.24-.41 2.24-.35 2.99.02.25.09.37.2.36.1 0 .26-.13.47-.36.45-.52 1.09-1.47 1.91-2.87.73-1.23 1.16-2.03 1.3-2.4.24-.62.44-.98.61-1.1.11-.08.21-.12.3-.13.09 0 .27.04.53.14.27.1.4.18.41.24 0 .02-.02.04-.06.08-.05.03-.07.07-.09.1m29.32-31.95c-1.33-.53-2.58-1.31-3.75-2.38-.83-.75-1.72-1.79-2.22-2.58-.08-.17-.17-.33-.27-.5 0-.02-.02-.03-.02-.05-.13-.19-.26-.39-.41-.58-.35-.43-.66-.72-.91-.86a.515.515 0 00-.51 0c-.29.14-.47.31-.54.51-.03.09-.05.23-.08.41-.03.38-.04.62-.05.75-.34.29-.53.52-.59.7-.04.13-.03.33.03.59.13.56.42 1.2.89 1.9.43.64.8 1.05 1.1 1.23.25.16.52.12.8-.13.25-.22.47-.58.65-1.05.08-.14.13-.26.18-.36.94 1.23 2.38 2.35 4.48 3.54-.7.29-1.95.87-3.71 1.75-1.64.8-2.14 1.06-2.74 1.39-.59.33-1.44.39-1.87.85-.15.16-.23.32-.25.43-.07.28-.02.67.19 1.15.05.12.1.19.16.21.08.02.32-.22.73-.75.83-.66 2.15-1.47 3.97-2.45 1.95-1.05 3.45-1.72 4.5-2.01.08.07.15.11.19.13.13.05.32-.13.56-.53.1-.16.17-.3.2-.44.05-.18-.17-.67-.68-.87m-6.38-2.27c-.12.4-.38.51-.75.33a1.52 1.52 0 01-.35-.25c-.18-.17-.37-.39-.57-.68-.26-.37-.43-.72-.52-1.04.06-.01.09-.03.11-.07 0-.02.01-.09.03-.22l.11-1.08c0-.07.02-.13.04-.17.04-.11.11-.14.21-.08.04.02.14.09.29.19.36.26.69.63.98 1.12.08.12.14.23.19.34.02.04.04.07.05.12.16.33.25.65.26.94.01.22-.02.41-.06.56m-17.72 6.24c-.6-.45-1.44-.7-2.51-.73-.68-.02-1.23.02-1.64.12-.25.06-.49.2-.69.41-.33.34-.5.61-.5.81 0 .09.03.21.08.37.13.3.22.5.27.59-.32.48-.48.81-.47.98 0 .13.11.26.31.41.09.07.21.12.33.18-.08 0-.14 0-.21.01-1.38.07-3 .13-3.44 0-.49-.15-.75-.36-.78-.61v-.27c-.02-.13-.06-.18-.13-.15-.1.05-.17.19-.23.42-.14.6-.18.86-.14 1.11.04.27.22.45.55.54.57.16 2.5 0 4.32-.05.52-.02 2.32-.22 2.59-.25.28-.03 1-.12 1.57-.35.05-.02.34-.13.37-.15.09-.04.16-.12.22-.21.02-.03.05-.06.07-.09.02-.05.14-.08.22-.44.08-.37.16-.7.23-1.09.06-.26.09-.46.08-.62 0-.4-.17-.71-.49-.95m-4.69.65c0-.13.09-.22.27-.26.08-.02.26-.06.56-.1.69-.11 1.39-.1 2.1.05.76.15 1.26.39 1.52.74.13.18.2.36.21.54.02.34-.16.6-.53.8l-.73.23c-.12.02-.25.04-.38.04-.37.03-.78 0-1.25-.05-.59-.08-1.04-.22-1.36-.42.08-.06.12-.11.12-.14 0-.02-.02-.1-.08-.21l-.43-1.02a.82.82 0 01-.03-.18m32.81-11.02c.11-.06.22-.1.34-.14a.7.7 0 01.36-.07c.1.01.21.06.33.14.5.36.74.58.76.63.01.17-.23.22-.75.16-.27.04-1.65.65-2.34 1.03-.63.35-1.05.63-1.25.81-.31.29-.45.57-.42.84.02.24.2.43.51.58.62.31 1.5.52 2.61.65.26.03.48.04.68.05.31 0 .52-.07.62-.23.11-.17.22-.25.34-.25.4 0 .57 0 .51-.01.15.02.26.1.34.26.16.32.23.57.21.75 0 .19-.3.27-.87.23-.57-.03-1.1-.08-1.6-.14-2.36-.27-3.58-.68-3.65-1.23 0-.08 0-.15.05-.22-.45-.49-.69-.87-.72-1.13-.03-.19.05-.39.21-.6.38-.47 2.05-1.36 3.21-1.89l.53-.24zM165.65 21.2s.05-.06.07-.1c.02-.06.13-.1.18-.46.05-.37.09-.7.12-1.08.03-.26.04-.46.01-.61-.04-.39-.24-.67-.6-.85-.66-.35-1.54-.47-2.64-.35-.7.07-1.25.19-1.66.35-.25.1-.47.26-.66.49-.3.38-.44.67-.43.86.02.08.07.34.14.49.13.39.26.99.28 1.08.02.22-.35.8-.31.95.05.21.16.31.33.42.17.1.4.28.48.25 1.05-.33 2.59-.4 4.57-.53 1.84-.12 2.98-.07 3.84.08.43.28.69.38.76.3.05-.06.1-.15.14-.3.17-.6.21-1.02.11-1.25a.5.5 0 00-.27-.27c-.46-.19-1.29.25-1.89.27-.6.03-.91.05-2.56.23m-4.96-1.79c-.02-.12.07-.23.25-.29.08-.03.27-.1.56-.18a6.25 6.25 0 012.16-.25c.79.04 1.33.2 1.63.5.15.16.23.32.26.5.05.33-.1.6-.45.84l-.72.33c-.13.04-.25.07-.4.1-.36.08-.79.12-1.27.12-.61 0-1.09-.06-1.43-.22.08-.07.11-.12.11-.16 0-.02-.04-.08-.1-.19l-.55-.92c-.03-.06-.04-.12-.05-.17"/></g></svg>